<?xml version="1.0" standalone="no"?>
<!DOCTYPE svg PUBLIC "-//W3C//DTD SVG 20010904//EN"
 "http://www.w3.org/TR/2001/REC-SVG-20010904/DTD/svg10.dtd">
<svg version="1.0" xmlns="http://www.w3.org/2000/svg"
 width="626.000000pt" height="417.000000pt" viewBox="0 0 626.000000 417.000000"
 preserveAspectRatio="xMidYMid meet">

<g transform="translate(0.000000,417.000000) scale(0.100000,-0.100000)"
fill="#000000" stroke="none">
<path d="M0 2085 l0 -2085 2850 0 2850 0 -91 136 c-50 75 -92 147 -94 160 -3
31 -215 352 -237 359 -9 3 -175 247 -368 542 -256 390 -354 546 -357 572 -4
30 0 43 21 68 15 17 257 179 539 359 281 180 611 391 732 469 121 77 264 168
317 200 l97 60 1 259 c0 242 -1 258 -17 252 -16 -5 -16 -4 1 8 10 8 16 20 14
26 -1 5 -186 -101 -410 -237 -224 -136 -405 -250 -403 -253 2 -3 -8 -6 -22 -6
-22 -2 -23 -1 -9 15 19 20 21 41 5 41 -6 0 -9 -7 -5 -15 5 -14 -28 -45 -49
-45 -5 0 -20 16 -32 35 l-23 34 30 30 c33 33 38 51 14 51 -10 0 -13 -6 -9 -19
4 -13 -2 -23 -19 -35 -24 -15 -26 -15 -36 4 -9 18 -6 25 19 49 31 29 42 56 19
48 -7 -2 -12 -11 -10 -19 1 -9 -9 -23 -22 -32 -25 -16 -26 -15 -56 29 l-30 44
36 34 c26 24 34 36 25 41 -8 5 -14 1 -18 -13 -3 -11 -16 -27 -29 -36 -21 -14
-24 -14 -34 4 -8 16 -4 24 25 50 39 34 42 41 20 41 -8 0 -15 -6 -15 -13 0 -8
-9 -22 -20 -32 -20 -18 -21 -18 -38 -1 -16 16 -15 19 21 52 21 20 36 38 33 41
-3 3 -19 -9 -37 -26 -30 -30 -33 -31 -48 -16 -15 15 -13 19 23 51 22 19 36 37
32 41 -4 4 -18 -7 -32 -25 -28 -35 -48 -41 -58 -15 -5 11 5 27 29 50 19 18 30
33 25 33 -6 0 -23 -14 -39 -32 l-28 -32 -12 23 c-11 20 -10 26 10 47 12 13 28
24 36 24 7 0 13 5 13 10 0 18 -22 10 -42 -15 -22 -28 -46 -32 -55 -9 -6 17 33
64 54 64 7 0 13 5 13 10 0 16 -10 12 -52 -24 -26 -23 -46 -32 -56 -28 -16 6
-16 7 0 10 9 2 15 9 12 16 -3 7 12 27 31 45 20 18 34 35 32 38 -3 2 -26 -16
-52 -41 -46 -45 -68 -55 -80 -36 -3 5 6 12 20 16 18 4 24 11 20 23 -6 18 26
53 59 65 14 5 16 10 9 17 -8 8 -21 0 -46 -27 l-34 -38 -13 23 c-10 20 -9 26
11 47 12 13 28 24 36 24 7 0 13 7 13 16 0 12 -9 8 -35 -15 -20 -17 -39 -31
-44 -31 -5 0 -20 17 -34 39 l-26 39 28 26 c15 14 35 26 44 26 17 0 22 11 11
23 -4 4 -25 -10 -47 -29 l-39 -36 -31 47 -31 47 29 22 c17 11 36 21 44 21 8 0
16 6 19 13 7 21 -19 13 -58 -18 -33 -26 -39 -28 -50 -15 -17 20 -4 49 18 43
12 -4 18 1 18 13 0 18 -9 16 -39 -10 -16 -13 -19 -13 -27 -1 -14 22 -12 28 10
42 11 7 20 17 20 22 0 5 -8 2 -18 -7 -24 -22 -38 -21 -47 0 -7 20 38 63 68 63
17 0 22 11 10 23 -3 4 -15 0 -25 -9 -15 -14 -20 -15 -35 -3 -16 12 -17 12 -6
-2 11 -13 10 -19 -5 -32 -14 -13 -21 -14 -30 -5 -7 7 -12 18 -12 24 0 16 55
55 71 52 6 -2 14 3 16 10 6 15 -19 16 -35 0 -8 -8 -15 -8 -29 3 -16 12 -17 12
-6 -2 11 -13 10 -19 -5 -32 -14 -13 -21 -14 -30 -5 -7 7 -12 18 -12 24 0 16
57 57 69 49 5 -3 13 0 16 6 11 17 -1 22 -25 9 -16 -9 -25 -9 -36 0 -17 15 -9
30 17 30 10 0 19 5 19 10 0 18 -25 10 -62 -20 -35 -29 -38 -30 -47 -12 -6 12
-7 22 -1 28 6 6 -16 11 -59 12 -67 3 -69 3 -75 -24 -5 -18 -3 -30 6 -36 11 -6
11 -10 0 -17 -10 -6 -8 -10 8 -14 12 -3 24 -15 27 -26 3 -12 9 -21 13 -21 15
0 60 -46 60 -62 0 -9 7 -19 16 -22 9 -3 14 -12 11 -19 -2 -6 3 -17 12 -24 9
-6 16 -26 17 -44 1 -18 9 -38 18 -44 9 -7 16 -17 16 -23 0 -6 7 -9 15 -6 8 4
15 2 15 -4 0 -6 3 -18 7 -28 5 -13 3 -15 -8 -9 -8 5 -11 4 -6 -1 5 -5 16 -9
25 -9 9 0 17 -5 17 -12 0 -7 9 -19 20 -28 18 -15 17 -15 -12 0 -61 29 -33 8
52 -41 57 -33 83 -54 80 -63 -4 -9 1 -12 14 -8 10 2 25 1 32 -4 11 -6 10 -12
-4 -27 -17 -19 -28 -14 -485 249 -257 147 -487 280 -510 294 -43 25 -44 26
-28 50 l16 25 -1960 0 -1960 0 0 -2085z m4679 2032 c8 -11 6 -18 -8 -31 -16
-15 -19 -15 -31 -1 -10 12 -10 18 0 30 15 19 24 19 39 2z m-1396 -325 c37 -37
67 -70 67 -74 0 -18 -48 -6 -71 18 -29 32 -71 54 -100 54 -18 0 -19 -2 -9 -15
7 -8 10 -21 7 -30 -4 -8 -2 -17 4 -21 6 -4 6 -11 -2 -20 -6 -7 -8 -25 -5 -38
7 -28 -9 -45 -18 -20 -3 9 -6 35 -6 59 0 24 -4 55 -10 69 -12 34 -2 84 19 89
32 9 57 -6 124 -71z m-47 -75 c2 -18 -2 -27 -11 -27 -21 0 -37 34 -22 49 17
17 29 9 33 -22z m44 -17 c13 -8 13 -10 -2 -10 -9 0 -20 5 -23 10 -8 13 5 13
25 0z m-45 -35 c-16 -7 -32 -11 -35 -9 -7 8 24 24 45 23 15 0 13 -4 -10 -14z
m25 -24 c0 -5 -7 -14 -15 -21 -14 -11 -11 -15 17 -29 38 -18 69 -47 61 -55 -4
-3 -1 -6 5 -6 7 0 12 9 12 20 0 27 23 35 63 23 l32 -9 -28 -19 c-46 -30 -232
-22 -265 12 -11 11 -11 14 2 19 9 3 31 21 50 40 32 32 66 45 66 25z m-459 -78
c1 -27 3 -78 5 -115 1 -46 -2 -70 -11 -78 -20 -17 -45 26 -45 79 0 51 28 161
41 161 5 0 10 -21 10 -47z m167 -10 c65 -40 65 -38 15 -109 -24 -35 -49 -64
-54 -64 -5 0 -9 -6 -9 -14 0 -17 -29 -25 -55 -15 -11 4 -16 8 -11 8 5 1 1 11
-10 22 -19 22 -19 22 2 11 24 -12 34 -7 34 17 0 14 -2 14 -11 1 -7 -11 -8 -6
-3 20 4 19 7 45 6 58 -2 26 23 30 36 5 9 -16 12 -16 36 1 15 9 31 14 36 11 6
-3 10 -2 10 3 0 5 -17 21 -37 35 -41 29 -29 37 15 10z m-68 -18 c0 -8 -4 -15
-10 -15 -5 0 -10 7 -10 15 0 8 5 15 10 15 6 0 10 -7 10 -15z m217 9 c-3 -3
-12 -4 -19 -1 -8 3 -5 6 6 6 11 1 17 -2 13 -5z m-272 -25 c12 -19 -5 -23 -22
-6 -16 16 -16 17 -1 17 9 0 20 -5 23 -11z m1730 -34 c225 -47 430 -231 505
-455 34 -99 39 -262 12 -368 -80 -316 -348 -525 -672 -525 -187 0 -344 65
-475 197 -280 282 -270 718 23 986 78 72 214 144 312 164 86 19 208 19 295 1z
m-1734 -41 c-24 -31 -25 -29 -10 15 8 22 15 29 22 22 6 -6 3 -19 -12 -37z
m301 -16 c-5 -34 -18 -58 -33 -58 -14 0 -11 78 4 83 27 12 33 6 29 -25z m48
-51 c0 -78 -44 -128 -52 -60 -5 40 3 75 24 97 19 21 28 9 28 -37z m193 -30
c-22 -52 -36 -70 -69 -90 -23 -14 -52 -28 -65 -31 -23 -7 -23 -6 3 10 14 10
45 47 69 83 38 60 79 105 87 96 2 -1 -9 -32 -25 -68z m2773 38 c-11 -8 -25
-15 -30 -15 -6 1 0 7 14 15 32 19 40 18 16 0z m-101 -63 c-79 -50 -92 -57 -82
-46 14 15 121 83 132 83 6 1 -17 -16 -50 -37z m-115 -72 c-14 -11 -29 -20 -35
-20 -5 0 4 9 20 20 38 25 48 25 15 0z m-94 -53 c-116 -74 -151 -95 -154 -92
-5 5 25 35 35 36 4 1 26 11 48 24 64 36 80 44 85 44 3 0 -3 -6 -14 -12z m-166
-101 c0 -5 -129 -86 -136 -86 -3 0 -20 -11 -38 -25 -39 -29 -46 -31 -46 -8 0
9 3 13 7 10 7 -7 78 31 129 70 17 12 36 23 42 23 7 0 12 5 12 10 0 6 7 10 15
10 8 0 15 -2 15 -4z m-272 -138 c17 -17 15 -28 -7 -28 -22 0 -35 15 -26 30 8
13 18 13 33 -2z m42 -2 c0 -3 -4 -8 -10 -11 -5 -3 -10 -1 -10 4 0 6 5 11 10
11 6 0 10 -2 10 -4z"/>
<path d="M4265 3173 c-52 -28 -104 -73 -134 -117 -120 -175 -53 -430 138 -523
49 -24 67 -28 146 -28 103 1 148 18 222 88 64 60 96 132 101 231 5 105 -19
174 -89 251 -73 79 -138 107 -259 111 -73 3 -102 -1 -125 -13z"/>
<path d="M6084 4142 c-26 -34 -211 -343 -221 -368 -3 -11 -10 -21 -14 -24 -11
-8 -266 -442 -284 -485 -10 -22 -26 -60 -37 -85 -23 -51 -16 -48 18 7 13 21
24 32 24 25 0 -16 -28 -63 -49 -79 -8 -7 -12 -15 -9 -18 12 -12 102 118 236
340 176 292 167 275 151 287 -11 7 -11 8 1 7 8 -1 23 1 33 5 14 7 88 121 165
256 13 23 13 24 -2 6 -18 -22 -21 -14 -5 15 5 11 14 17 20 14 5 -4 9 1 9 10 0
9 9 33 20 55 26 52 25 60 -7 59 -18 0 -35 -10 -49 -27z m56 -7 c0 -8 -4 -15
-9 -15 -13 0 -22 16 -14 24 11 11 23 6 23 -9z"/>
<path d="M6211 4133 c50 -83 49 -83 49 -20 l0 57 -36 0 -36 0 23 -37z"/>
<path d="M4810 3975 c-10 -13 -9 -15 9 -15 12 0 21 6 21 15 0 8 -4 15 -9 15
-5 0 -14 -7 -21 -15z"/>
<path d="M4847 3934 c-8 -8 1 -24 14 -24 5 0 9 7 9 15 0 15 -12 20 -23 9z"/>
<path d="M4878 3817 c-16 -13 -28 -27 -28 -32 0 -4 11 2 24 14 13 12 29 21 36
19 7 -2 15 3 17 10 7 19 -19 13 -49 -11z"/>
<path d="M4935 3713 c-22 -20 -29 -28 -15 -19 14 9 33 19 43 23 9 3 17 12 17
19 0 18 1 19 -45 -23z"/>
<path d="M4670 3736 c0 -3 9 -10 20 -16 11 -6 20 -8 20 -6 0 3 -9 10 -20 16
-11 6 -20 8 -20 6z"/>
<path d="M5289 3216 c-1 -3 -2 -11 -3 -17 0 -5 -12 -19 -26 -29 -14 -11 -20
-20 -14 -20 18 0 67 57 55 64 -6 4 -12 5 -12 2z"/>
<path d="M5380 3065 c0 -8 5 -15 10 -15 6 0 10 7 10 15 0 8 -4 15 -10 15 -5 0
-10 -7 -10 -15z"/>
<path d="M5360 3019 c-22 -18 -22 -19 -3 -10 12 6 25 16 28 21 9 15 3 12 -25
-11z"/>
<path d="M5973 2336 c-155 -99 -285 -185 -290 -190 -4 -6 3 -3 17 6 14 8 99
61 190 118 91 57 206 128 255 158 94 58 122 79 114 86 -2 2 -131 -78 -286
-178z"/>
<path d="M6181 2430 c-24 -16 -46 -31 -49 -34 -7 -8 66 -116 79 -116 6 0 19 5
30 10 16 9 19 22 19 90 0 93 -6 97 -79 50z"/>
<path d="M6041 2340 c-24 -16 -46 -31 -49 -34 -7 -8 107 -176 125 -183 15 -6
113 54 113 69 0 20 -116 177 -130 177 -8 0 -35 -13 -59 -29z"/>
<path d="M5903 2252 c-23 -15 -44 -30 -48 -34 -6 -6 126 -211 143 -222 13 -7
112 56 112 72 0 23 -134 212 -150 211 -8 0 -34 -12 -57 -27z"/>
<path d="M6237 2263 c-11 -10 -8 -28 8 -49 13 -18 14 -17 15 19 0 35 -8 46
-23 30z"/>
<path d="M5763 2162 c-23 -15 -43 -33 -43 -40 0 -13 174 -277 188 -286 12 -7
111 58 112 72 0 24 -183 282 -199 281 -9 0 -35 -13 -58 -27z"/>
<path d="M6188 2130 c-27 -17 -48 -35 -48 -42 0 -20 61 -108 75 -108 40 0 45
10 45 96 0 96 -2 98 -72 54z"/>
<path d="M5614 2104 c-18 -14 -18 -15 4 -4 12 6 22 13 22 15 0 8 -5 6 -26 -11z"/>
<path d="M5622 2070 c-34 -22 -62 -44 -62 -50 0 -13 56 -96 71 -105 13 -9 129
66 129 83 0 14 -54 97 -68 106 -5 3 -36 -13 -70 -34z"/>
<path d="M6078 2010 c-25 -16 -49 -33 -52 -39 -6 -10 61 -121 72 -121 14 0
112 65 112 75 0 14 -68 115 -78 115 -4 0 -28 -14 -54 -30z"/>
<path d="M5718 1931 c-31 -20 -60 -39 -64 -43 -8 -8 64 -118 77 -118 12 0 116
67 124 79 6 11 -53 108 -70 114 -5 3 -36 -12 -67 -32z"/>
<path d="M6241 1957 c-8 -10 -7 -19 4 -33 14 -18 14 -17 15 14 0 36 -2 38 -19
19z"/>
<path d="M6172 1868 c-28 -18 -52 -38 -52 -45 0 -13 56 -99 70 -108 5 -3 23 1
40 10 28 15 30 19 30 76 0 57 -12 99 -28 99 -4 0 -31 -15 -60 -32z"/>
<path d="M5978 1847 c-26 -18 -48 -35 -48 -40 0 -9 71 -117 77 -117 10 0 92
52 103 66 10 12 6 24 -24 69 -20 30 -42 55 -49 54 -6 0 -33 -15 -59 -32z"/>
<path d="M5813 1790 c-35 -22 -63 -45 -63 -50 0 -17 64 -110 76 -110 6 0 39
18 73 40 l62 40 -18 31 c-10 17 -29 44 -43 60 l-25 29 -62 -40z"/>
<path d="M6078 1708 c-27 -17 -48 -37 -48 -45 0 -16 54 -98 71 -108 9 -6 119
59 119 70 0 14 -74 115 -84 114 -6 0 -32 -14 -58 -31z"/>
<path d="M6233 1702 l-23 -17 25 -40 24 -40 1 58 c0 31 -1 57 -2 57 -2 0 -13
-8 -25 -18z"/>
<path d="M5901 1645 c-29 -18 -55 -36 -58 -39 -6 -6 71 -129 92 -146 11 -9 27
-4 74 25 33 20 63 40 66 46 9 13 -87 148 -105 148 -8 0 -39 -15 -69 -34z"/>
<path d="M6187 1571 c-73 -43 -73 -42 -31 -105 40 -61 41 -61 79 -44 23 10 25
16 25 83 0 94 -10 103 -73 66z"/>
<path d="M6057 1215 c109 -162 199 -291 201 -285 4 11 2 14 -226 343 -90 130
-166 237 -168 237 -3 0 84 -133 193 -295z"/>
<path d="M6023 1469 c-35 -23 -63 -44 -63 -48 0 -3 62 -97 138 -208 75 -112
142 -211 149 -220 9 -14 12 13 12 134 l1 152 -78 112 c-43 62 -82 114 -87 116
-6 1 -38 -16 -72 -38z"/>
<path d="M6238 1399 c-23 -13 -22 -28 2 -59 l20 -25 0 48 c0 26 -1 47 -2 47
-2 0 -11 -5 -20 -11z"/>
<path d="M6224 424 c-18 -14 -18 -15 4 -4 12 6 22 13 22 15 0 8 -5 6 -26 -11z"/>
<path d="M6094 344 c-18 -14 -18 -15 4 -4 12 6 22 13 22 15 0 8 -5 6 -26 -11z"/>
</g>
</svg>
