<svg width="253" height="253" viewBox="0 0 253 253" fill="none" xmlns="http://www.w3.org/2000/svg">
<rect width="253" height="253" rx="30" fill="#4A4646"/>
<path d="M52.8906 119.812C52.8906 118.969 52.4531 118.266 51.5781 117.703C50.7031 117.109 49.6406 116.812 48.3906 116.812C46.0469 116.812 43.9219 117.5 42.0156 118.875C40.1094 120.219 38.6094 122.172 37.5156 124.734C36.4531 127.266 35.9219 130.141 35.9219 133.359C35.9219 136.328 36.5469 139.031 37.7969 141.469C39.0781 143.875 40.7812 145.75 42.9062 147.094C45.0625 148.438 47.4062 149.109 49.9375 149.109C52.0312 149.109 54.2188 148.641 56.5 147.703C58.8125 146.734 60.6562 145.5 62.0312 144L63.6719 146.203C61.2031 149.766 58.2344 152.5 54.7656 154.406C51.3281 156.312 47.8281 157.266 44.2656 157.266C40.9531 157.266 37.7812 156.359 34.75 154.547C31.75 152.734 29.3438 150.281 27.5312 147.188C25.75 144.062 24.8594 140.656 24.8594 136.969C24.8594 133.969 25.4062 131.109 26.5 128.391C27.5938 125.672 29.1562 123.25 31.1875 121.125C33.25 118.969 35.6875 117.281 38.5 116.062C41.3125 114.844 44.4219 114.234 47.8281 114.234C50.5781 114.234 53.0781 114.656 55.3281 115.5C57.5781 116.312 59.3438 117.453 60.625 118.922C61.9375 120.391 62.5938 122 62.5938 123.75C62.5938 125.281 62.0312 126.547 60.9062 127.547C59.7812 128.547 58.4531 129.047 56.9219 129.047C55.5156 129.047 54.3438 128.562 53.4062 127.594C52.5 126.594 52.0469 125.531 52.0469 124.406C52.0469 124.188 52.1875 123.484 52.4688 122.297C52.75 121.078 52.8906 120.25 52.8906 119.812ZM53.5938 124.406C53.5938 125.406 53.9688 126.156 54.7188 126.656C55.5 127.156 56.3438 127.406 57.25 127.406C57.5312 127.406 58.2969 127.281 59.5469 127.031C57.6094 126.625 56.6406 125.625 56.6406 124.031C56.6406 123.906 56.7031 123.547 56.8281 122.953C56.9844 122.359 57.0625 121.859 57.0625 121.453C57.0625 119.734 55.8438 118.422 53.4062 117.516C54.0938 118.484 54.4375 119.375 54.4375 120.188C54.4375 120.719 54.2969 121.438 54.0156 122.344C53.7344 123.25 53.5938 123.938 53.5938 124.406ZM40.4219 117.141C37.4219 118.266 34.875 119.812 32.7812 121.781C30.7188 123.75 29.1406 126.047 28.0469 128.672C26.9531 131.266 26.4062 133.906 26.4062 136.594C26.4062 140.25 27.2812 143.531 29.0312 146.438C30.7812 149.344 33.0781 151.609 35.9219 153.234C38.7969 154.828 41.7031 155.625 44.6406 155.625C48.9219 155.625 52.9531 154.219 56.7344 151.406C52.6406 152.75 49.3438 153.422 46.8438 153.422C43.6562 153.422 40.7344 152.703 38.0781 151.266C35.4219 149.828 33.3125 147.828 31.75 145.266C30.1875 142.703 29.4062 139.844 29.4062 136.688C29.4062 133.031 30.3438 129.531 32.2188 126.188C34.125 122.812 36.8594 119.797 40.4219 117.141ZM73.0938 148.688V104.25C73.0938 101.875 72.7188 100.016 71.9688 98.6719C71.2188 97.3281 69.4844 96.1562 66.7656 95.1562V93.3281L82 88.3125H83.8281V146.953C83.8281 149.391 84.0938 151.078 84.625 152.016C85.1875 152.953 86.5938 153.422 88.8438 153.422H90.1094V156H66.7656V153.422H67.8906C69.7344 153.422 71.0625 153.031 71.875 152.25C72.6875 151.469 73.0938 150.281 73.0938 148.688ZM77.6875 146.766V104.531C77.6875 102.312 77.5781 100.547 77.3594 99.2344C77.1719 97.8906 76.5938 96.7812 75.625 95.9062C74.6875 95 73.1719 94.5469 71.0781 94.5469C70.0469 94.5469 69.2188 94.5781 68.5938 94.6406C71.4688 95.4531 73.1875 96.6562 73.75 98.25C74.3438 99.8438 74.6406 101.938 74.6406 104.531V148.406C74.6406 150.531 74 152.203 72.7188 153.422C74.9062 153.328 76.2812 152.734 76.8438 151.641C77.4062 150.516 77.6875 148.891 77.6875 146.766ZM130.188 144.375L132.062 145.828C130.656 148.453 128.984 150.609 127.047 152.297C125.109 153.984 122.969 155.234 120.625 156.047C118.312 156.859 115.891 157.266 113.359 157.266C109.922 157.266 106.719 156.438 103.75 154.781C100.812 153.125 98.4844 150.734 96.7656 147.609C95.0469 144.484 94.1875 140.938 94.1875 136.969C94.1875 133.844 94.7031 130.906 95.7344 128.156C96.7969 125.406 98.25 122.984 100.094 120.891C101.969 118.797 104.125 117.172 106.562 116.016C109.031 114.828 111.656 114.234 114.438 114.234C117.25 114.234 119.922 114.828 122.453 116.016C125.016 117.172 127.047 118.781 128.547 120.844C129.641 122.344 130.422 123.891 130.891 125.484C131.391 127.047 131.781 128.938 132.062 131.156H103.75C103.875 134.406 104.422 137.156 105.391 139.406C106.391 141.656 107.672 143.469 109.234 144.844C110.828 146.219 112.516 147.203 114.297 147.797C116.078 148.391 117.781 148.688 119.406 148.688C123.344 148.688 126.938 147.25 130.188 144.375ZM121.891 128.156H125.172C125.078 124.656 124.359 122.078 123.016 120.422C121.672 118.734 119.422 117.609 116.266 117.047C118.266 117.953 119.703 119.141 120.578 120.609C121.453 122.047 121.891 124.25 121.891 127.219V128.156ZM104.031 128.156H120.391V126.609C120.391 124.797 120.062 123.188 119.406 121.781C118.75 120.344 117.844 119.25 116.688 118.5C115.562 117.719 114.266 117.328 112.797 117.328C110.422 117.328 108.406 118.391 106.75 120.516C105.094 122.609 104.188 125.156 104.031 128.156ZM104.453 118.922C98.6094 123.547 95.6875 129.609 95.6875 137.109C95.6875 142.547 97.4219 147 100.891 150.469C104.391 153.906 108.422 155.625 112.984 155.625C115.641 155.625 118.297 155.094 120.953 154.031C123.641 152.938 125.906 151.328 127.75 149.203C125.844 150.422 123.891 151.422 121.891 152.203C119.922 152.953 117.562 153.328 114.812 153.328C110.156 153.328 106.266 151.703 103.141 148.453C100.047 145.203 98.5 140.969 98.5 135.75C98.5 132.438 99.0156 129.469 100.047 126.844C101.078 124.219 102.547 121.578 104.453 118.922ZM147.766 119.719C147.766 119.844 147.969 120.297 148.375 121.078C148.781 121.859 148.984 122.594 148.984 123.281C148.984 124.625 148.422 125.828 147.297 126.891C146.203 127.922 144.828 128.438 143.172 128.438C141.578 128.438 140.312 128.031 139.375 127.219C138.438 126.375 137.969 125.406 137.969 124.312C137.969 122.688 138.75 121.094 140.312 119.531C141.906 117.969 144.078 116.703 146.828 115.734C149.609 114.734 152.672 114.234 156.016 114.234C158.453 114.234 160.719 114.656 162.812 115.5C164.938 116.344 166.625 117.625 167.875 119.344C169.125 121.062 169.75 123.141 169.75 125.578V149.391C169.75 151.297 170.297 152.25 171.391 152.25C172.047 152.25 172.844 151.734 173.781 150.703L175.516 152.719C173.984 154.25 172.562 155.406 171.25 156.188C169.969 156.969 168.438 157.359 166.656 157.359C164.594 157.359 162.984 156.906 161.828 156C160.672 155.062 159.859 153.625 159.391 151.688C155.078 155.406 150.812 157.266 146.594 157.266C143.594 157.266 141.203 156.484 139.422 154.922C137.672 153.359 136.797 151.375 136.797 148.969C136.797 146.812 137.328 144.984 138.391 143.484C139.484 141.953 140.906 140.609 142.656 139.453C144.438 138.266 147.047 136.781 150.484 135C153.922 133.188 156.75 131.641 158.969 130.359V123.281C158.969 121.156 158.484 119.547 157.516 118.453C156.547 117.359 155.094 116.812 153.156 116.812C151.469 116.812 150.141 117.125 149.172 117.75C148.234 118.344 147.766 119 147.766 119.719ZM160.516 126.328V144.844C160.516 148.5 160.906 151.234 161.688 153.047C162.469 154.828 164 155.719 166.281 155.719C167.312 155.719 168.141 155.594 168.766 155.344C166.891 155.062 165.562 154.312 164.781 153.094C164 151.875 163.609 149.969 163.609 147.375V125.859C163.609 122.609 163.141 120.375 162.203 119.156C161.297 117.906 159.719 117.156 157.469 116.906C158.688 117.531 159.5 118.438 159.906 119.625C160.312 120.812 160.516 123.047 160.516 126.328ZM158.969 148.594V133.547C154.969 135.797 152.172 137.828 150.578 139.641C149.016 141.453 148.234 143.641 148.234 146.203C148.234 147.922 148.703 149.25 149.641 150.188C150.578 151.125 151.672 151.594 152.922 151.594C154.891 151.594 156.906 150.594 158.969 148.594ZM150.719 155.062C147.875 155.062 145.594 154.484 143.875 153.328C142.188 152.172 141.344 150.5 141.344 148.312C141.344 146.719 141.75 145.219 142.562 143.812C143.406 142.375 144.656 140.781 146.312 139.031C143.781 140.5 141.812 142 140.406 143.531C139.031 145.062 138.344 146.875 138.344 148.969C138.344 150.875 139.172 152.469 140.828 153.75C142.516 155 144.344 155.625 146.312 155.625C148.219 155.625 149.688 155.438 150.719 155.062ZM146.312 125.484C145.188 125.578 144.328 125.359 143.734 124.828C143.141 124.297 142.844 123.672 142.844 122.953C142.844 121.984 143.109 121.125 143.641 120.375C144.172 119.594 145.094 118.484 146.406 117.047C144.188 118.172 142.484 119.297 141.297 120.422C140.109 121.547 139.516 122.812 139.516 124.219C139.516 124.844 139.828 125.438 140.453 126C141.109 126.531 141.875 126.797 142.75 126.797C144.25 126.797 145.438 126.359 146.312 125.484ZM196.656 114.234V121.453C199.062 118.734 200.906 116.859 202.188 115.828C203.469 114.766 205.016 114.234 206.828 114.234C208.391 114.234 209.703 114.797 210.766 115.922C211.859 117.016 212.406 118.406 212.406 120.094C212.406 121.844 211.922 123.312 210.953 124.5C209.984 125.656 208.766 126.234 207.297 126.234C206.641 126.234 205.922 126.109 205.141 125.859C204.359 125.609 203.703 125.281 203.172 124.875C202.859 124.625 202.531 124.359 202.188 124.078C201.844 123.797 201.531 123.578 201.25 123.422C201 123.266 200.719 123.188 200.406 123.188C199.812 123.188 199.219 123.422 198.625 123.891C198.062 124.328 197.406 124.953 196.656 125.766V148.406C196.656 150.031 196.875 151.188 197.312 151.875C197.781 152.562 198.484 153 199.422 153.188C200.391 153.344 202.062 153.422 204.438 153.422V156H179.266V153.422H180.531C184.156 153.422 185.969 151.984 185.969 149.109V128.062C185.969 124.469 183.734 122 179.266 120.656V119.062L194.359 114.234H196.656ZM187.516 128.062V149.391C187.516 150.453 187.344 151.25 187 151.781C186.656 152.281 186.156 152.828 185.5 153.422C187.281 153.266 188.562 152.797 189.344 152.016C190.125 151.203 190.516 149.812 190.516 147.844V128.062C190.516 125.375 190.047 123.422 189.109 122.203C188.172 120.984 186.688 120.375 184.656 120.375C184.5 120.375 184.156 120.406 183.625 120.469C183.094 120.531 182.734 120.562 182.547 120.562C185.859 122 187.516 124.5 187.516 128.062ZM199.797 121.453C200.641 121.453 201.484 121.734 202.328 122.297C204.266 123.828 205.891 124.594 207.203 124.594C208.828 124.594 210.016 123.547 210.766 121.453C209.891 121.891 209.25 122.109 208.844 122.109C207.906 122.109 206.969 121.797 206.031 121.172C204.844 120.203 203.859 119.719 203.078 119.719C202.328 119.719 201.234 120.297 199.797 121.453Z" fill="white"/>
</svg>
