<svg width="565" height="545" viewBox="0 0 565 545" fill="none" xmlns="http://www.w3.org/2000/svg">
<rect width="253" height="253" rx="30" fill="#4A4646"/>
<path d="M133.938 80.8125H213.375L217.875 101.438H213.375C210.167 96.0625 206.812 92.125 203.312 89.625C199.812 87.125 196.5 85.625 193.375 85.125C190.292 84.625 186.25 84.3333 181.25 84.25V155.312C181.25 158.062 181.688 160.167 182.562 161.625C183.438 163.042 184.875 164.021 186.875 164.562C188.875 165.104 191.667 165.438 195.25 165.562V169H151.438V165.562C155.062 165.479 157.833 165.208 159.75 164.75C161.708 164.25 163.167 163.25 164.125 161.75C165.125 160.208 165.625 157.812 165.625 154.562V84.25C161.125 84.2917 157.208 84.75 153.875 85.625C150.542 86.4583 147.75 87.6042 145.5 89.0625C143.25 90.5208 141.375 92.0833 139.875 93.75C138.417 95.375 136.25 97.9375 133.375 101.438H129.562L133.938 80.8125ZM210.812 94.25L208 84.25H196.25C199.417 85.25 202.062 86.5417 204.188 88.125C206.312 89.7083 208.521 91.75 210.812 94.25ZM171.688 153.125V91.6875C171.688 89.2708 171.396 87.4583 170.812 86.25C170.271 85.0417 169.229 84.375 167.688 84.25V155.312C167.688 157.896 167.375 159.958 166.75 161.5C166.125 163.042 164.958 164.396 163.25 165.562H164.625C167.667 165.562 169.604 164.604 170.438 162.688C171.271 160.771 171.688 157.583 171.688 153.125ZM145.562 84.25H135.438L133 94.875C135.125 92.0833 136.979 90.0208 138.562 88.6875C140.146 87.3125 142.479 85.8333 145.562 84.25Z" fill="white"/>
<path d="M35.6406 132.719C35.6406 132.844 35.8438 133.297 36.25 134.078C36.6562 134.859 36.8594 135.594 36.8594 136.281C36.8594 137.625 36.2969 138.828 35.1719 139.891C34.0781 140.922 32.7031 141.438 31.0469 141.438C29.4531 141.438 28.1875 141.031 27.25 140.219C26.3125 139.375 25.8438 138.406 25.8438 137.312C25.8438 135.688 26.625 134.094 28.1875 132.531C29.7812 130.969 31.9531 129.703 34.7031 128.734C37.4844 127.734 40.5469 127.234 43.8906 127.234C46.3281 127.234 48.5938 127.656 50.6875 128.5C52.8125 129.344 54.5 130.625 55.75 132.344C57 134.062 57.625 136.141 57.625 138.578V162.391C57.625 164.297 58.1719 165.25 59.2656 165.25C59.9219 165.25 60.7188 164.734 61.6562 163.703L63.3906 165.719C61.8594 167.25 60.4375 168.406 59.125 169.188C57.8438 169.969 56.3125 170.359 54.5312 170.359C52.4688 170.359 50.8594 169.906 49.7031 169C48.5469 168.062 47.7344 166.625 47.2656 164.688C42.9531 168.406 38.6875 170.266 34.4688 170.266C31.4688 170.266 29.0781 169.484 27.2969 167.922C25.5469 166.359 24.6719 164.375 24.6719 161.969C24.6719 159.812 25.2031 157.984 26.2656 156.484C27.3594 154.953 28.7812 153.609 30.5312 152.453C32.3125 151.266 34.9219 149.781 38.3594 148C41.7969 146.188 44.625 144.641 46.8438 143.359V136.281C46.8438 134.156 46.3594 132.547 45.3906 131.453C44.4219 130.359 42.9688 129.812 41.0312 129.812C39.3438 129.812 38.0156 130.125 37.0469 130.75C36.1094 131.344 35.6406 132 35.6406 132.719ZM48.3906 139.328V157.844C48.3906 161.5 48.7812 164.234 49.5625 166.047C50.3438 167.828 51.875 168.719 54.1562 168.719C55.1875 168.719 56.0156 168.594 56.6406 168.344C54.7656 168.062 53.4375 167.312 52.6562 166.094C51.875 164.875 51.4844 162.969 51.4844 160.375V138.859C51.4844 135.609 51.0156 133.375 50.0781 132.156C49.1719 130.906 47.5938 130.156 45.3438 129.906C46.5625 130.531 47.375 131.438 47.7812 132.625C48.1875 133.812 48.3906 136.047 48.3906 139.328ZM46.8438 161.594V146.547C42.8438 148.797 40.0469 150.828 38.4531 152.641C36.8906 154.453 36.1094 156.641 36.1094 159.203C36.1094 160.922 36.5781 162.25 37.5156 163.188C38.4531 164.125 39.5469 164.594 40.7969 164.594C42.7656 164.594 44.7812 163.594 46.8438 161.594ZM38.5938 168.062C35.75 168.062 33.4688 167.484 31.75 166.328C30.0625 165.172 29.2188 163.5 29.2188 161.312C29.2188 159.719 29.625 158.219 30.4375 156.812C31.2812 155.375 32.5312 153.781 34.1875 152.031C31.6562 153.5 29.6875 155 28.2812 156.531C26.9062 158.062 26.2188 159.875 26.2188 161.969C26.2188 163.875 27.0469 165.469 28.7031 166.75C30.3906 168 32.2188 168.625 34.1875 168.625C36.0938 168.625 37.5625 168.438 38.5938 168.062ZM34.1875 138.484C33.0625 138.578 32.2031 138.359 31.6094 137.828C31.0156 137.297 30.7188 136.672 30.7188 135.953C30.7188 134.984 30.9844 134.125 31.5156 133.375C32.0469 132.594 32.9688 131.484 34.2812 130.047C32.0625 131.172 30.3594 132.297 29.1719 133.422C27.9844 134.547 27.3906 135.812 27.3906 137.219C27.3906 137.844 27.7031 138.438 28.3281 139C28.9844 139.531 29.75 139.797 30.625 139.797C32.125 139.797 33.3125 139.359 34.1875 138.484Z" fill="white"/>
<path d="M138.395 127.551C138.7 126.781 138.322 125.91 137.551 125.605L124.997 120.642C124.227 120.337 123.355 120.715 123.051 121.485C122.746 122.256 123.124 123.127 123.894 123.432L135.054 127.843L130.642 139.003C130.337 139.773 130.715 140.645 131.485 140.949C132.256 141.254 133.127 140.876 133.432 140.106L138.395 127.551ZM77.5964 154.376L137.596 128.376L136.404 125.624L76.4036 151.624L77.5964 154.376Z" fill="white"/>
</svg>
