<svg width="262" height="253" viewBox="0 0 262 253" fill="none" xmlns="http://www.w3.org/2000/svg">
<rect width="253" height="253" rx="30" fill="#4A4646"/>
<path d="M21.2031 90.8594H80.7812L84.1562 106.328H80.7812C78.375 102.297 75.8594 99.3438 73.2344 97.4688C70.6094 95.5938 68.125 94.4688 65.7812 94.0938C63.4688 93.7188 60.4375 93.5 56.6875 93.4375V146.734C56.6875 148.797 57.0156 150.375 57.6719 151.469C58.3281 152.531 59.4062 153.266 60.9062 153.672C62.4062 154.078 64.5 154.328 67.1875 154.422V157H34.3281V154.422C37.0469 154.359 39.125 154.156 40.5625 153.812C42.0312 153.438 43.125 152.688 43.8438 151.562C44.5938 150.406 44.9688 148.609 44.9688 146.172V93.4375C41.5938 93.4688 38.6562 93.8125 36.1562 94.4688C33.6562 95.0938 31.5625 95.9531 29.875 97.0469C28.1875 98.1406 26.7812 99.3125 25.6562 100.562C24.5625 101.781 22.9375 103.703 20.7812 106.328H17.9219L21.2031 90.8594ZM78.8594 100.938L76.75 93.4375H67.9375C70.3125 94.1875 72.2969 95.1562 73.8906 96.3438C75.4844 97.5312 77.1406 99.0625 78.8594 100.938ZM49.5156 145.094V99.0156C49.5156 97.2031 49.2969 95.8438 48.8594 94.9375C48.4531 94.0312 47.6719 93.5312 46.5156 93.4375V146.734C46.5156 148.672 46.2812 150.219 45.8125 151.375C45.3438 152.531 44.4688 153.547 43.1875 154.422H44.2188C46.5 154.422 47.9531 153.703 48.5781 152.266C49.2031 150.828 49.5156 148.438 49.5156 145.094ZM29.9219 93.4375H22.3281L20.5 101.406C22.0938 99.3125 23.4844 97.7656 24.6719 96.7656C25.8594 95.7344 27.6094 94.625 29.9219 93.4375ZM149.125 145.375L151 146.828C149.594 149.453 147.922 151.609 145.984 153.297C144.047 154.984 141.906 156.234 139.562 157.047C137.25 157.859 134.828 158.266 132.297 158.266C128.859 158.266 125.656 157.438 122.688 155.781C119.75 154.125 117.422 151.734 115.703 148.609C113.984 145.484 113.125 141.938 113.125 137.969C113.125 134.844 113.641 131.906 114.672 129.156C115.734 126.406 117.188 123.984 119.031 121.891C120.906 119.797 123.062 118.172 125.5 117.016C127.969 115.828 130.594 115.234 133.375 115.234C136.188 115.234 138.859 115.828 141.391 117.016C143.953 118.172 145.984 119.781 147.484 121.844C148.578 123.344 149.359 124.891 149.828 126.484C150.328 128.047 150.719 129.938 151 132.156H122.688C122.812 135.406 123.359 138.156 124.328 140.406C125.328 142.656 126.609 144.469 128.172 145.844C129.766 147.219 131.453 148.203 133.234 148.797C135.016 149.391 136.719 149.688 138.344 149.688C142.281 149.688 145.875 148.25 149.125 145.375ZM140.828 129.156H144.109C144.016 125.656 143.297 123.078 141.953 121.422C140.609 119.734 138.359 118.609 135.203 118.047C137.203 118.953 138.641 120.141 139.516 121.609C140.391 123.047 140.828 125.25 140.828 128.219V129.156ZM122.969 129.156H139.328V127.609C139.328 125.797 139 124.188 138.344 122.781C137.688 121.344 136.781 120.25 135.625 119.5C134.5 118.719 133.203 118.328 131.734 118.328C129.359 118.328 127.344 119.391 125.688 121.516C124.031 123.609 123.125 126.156 122.969 129.156ZM123.391 119.922C117.547 124.547 114.625 130.609 114.625 138.109C114.625 143.547 116.359 148 119.828 151.469C123.328 154.906 127.359 156.625 131.922 156.625C134.578 156.625 137.234 156.094 139.891 155.031C142.578 153.938 144.844 152.328 146.688 150.203C144.781 151.422 142.828 152.422 140.828 153.203C138.859 153.953 136.5 154.328 133.75 154.328C129.094 154.328 125.203 152.703 122.078 149.453C118.984 146.203 117.438 141.969 117.438 136.75C117.438 133.438 117.953 130.469 118.984 127.844C120.016 125.219 121.484 122.578 123.391 119.922ZM200.125 157H176.781V154.422C179.344 154.078 180.625 153.109 180.625 151.516C180.625 150.797 179.984 149.547 178.703 147.766L174.203 141.719L171.297 145.281C170.641 146.062 170.109 146.812 169.703 147.531C169.297 148.25 169.094 149.172 169.094 150.297C169.094 151.359 169.5 152.266 170.312 153.016C171.125 153.766 172.281 154.234 173.781 154.422V157H154.516V154.422C155.891 154.234 157.344 153.703 158.875 152.828C160.438 151.922 162.031 150.766 163.656 149.359C165.312 147.922 167.031 146.156 168.812 144.062L172.562 139.516L160.281 122.922C158.938 121.109 157.828 119.969 156.953 119.5C156.078 119.031 155.094 118.672 154 118.422V116.031H176.781V118.422C174.531 118.609 173.406 119.406 173.406 120.812C173.406 121.844 173.984 123.156 175.141 124.75L179.734 130.984L181.938 128.312C183.812 126.125 184.75 124 184.75 121.938C184.75 120.938 184.438 120.125 183.812 119.5C183.188 118.875 182.281 118.516 181.094 118.422V116.031H198.672V118.422C196.891 118.734 195.25 119.359 193.75 120.297C192.281 121.203 190.938 122.297 189.719 123.578C188.5 124.828 187.094 126.406 185.5 128.312L181.375 133.188L192.344 148.188C192.438 148.281 192.781 148.766 193.375 149.641C193.969 150.516 194.578 151.266 195.203 151.891C195.828 152.516 196.531 153.031 197.312 153.438C198.094 153.844 199.031 154.172 200.125 154.422V157ZM162.391 122.922L179.922 146.828C181.422 148.891 182.172 150.484 182.172 151.609C182.172 152.578 181.75 153.516 180.906 154.422H182.031C182.875 154.422 183.656 154.094 184.375 153.438C185.125 152.781 185.5 152.047 185.5 151.234C185.5 149.891 184.484 147.812 182.453 145L166.234 122.922C165.047 121.359 164.141 120.297 163.516 119.734C162.922 119.172 162.234 118.812 161.453 118.656C160.672 118.469 159.609 118.391 158.266 118.422C158.797 118.797 159.297 119.234 159.766 119.734C160.234 120.203 160.641 120.641 160.984 121.047C161.328 121.453 161.625 121.844 161.875 122.219C162.125 122.562 162.297 122.797 162.391 122.922ZM192.156 118.609H184.938C185.844 119.609 186.297 120.719 186.297 121.938C186.297 122.562 186.188 123.172 185.969 123.766C188.156 121.453 190.219 119.734 192.156 118.609ZM159.203 154.422H167.828C167.141 153.828 166.656 153.297 166.375 152.828C166.125 152.328 166 151.641 166 150.766C166 150.141 166.172 149.406 166.516 148.562C164.172 151.156 161.734 153.109 159.203 154.422ZM208.469 145.656V118.984H203.453V116.594C206.203 114.531 208.266 112.953 209.641 111.859C211.016 110.734 212.312 109.484 213.531 108.109C214.781 106.734 215.844 105.297 216.719 103.797H219.203V116.031H230.828V118.984H219.203V147.016C219.203 149.078 219.453 150.625 219.953 151.656C220.453 152.656 221.297 153.156 222.484 153.156C223.609 153.156 224.641 152.844 225.578 152.219C226.547 151.594 227.719 150.625 229.094 149.312L230.828 151.141C228.484 153.547 226.328 155.344 224.359 156.531C222.422 157.688 220.188 158.266 217.656 158.266C215.25 158.266 213.375 157.734 212.031 156.672C210.688 155.609 209.75 154.172 209.219 152.359C208.719 150.516 208.469 148.281 208.469 145.656ZM213.062 111.016L209.969 113.594V144.719C209.969 148.875 210.5 151.906 211.562 153.812C212.656 155.688 214.594 156.625 217.375 156.625C218.844 156.625 220.312 156.391 221.781 155.922C218.938 156.016 216.766 155.359 215.266 153.953C213.797 152.516 213.062 150.141 213.062 146.828V111.016Z" fill="white"/>
<path d="M98.0607 164.939C97.4749 164.354 96.5251 164.354 95.9393 164.939L86.3934 174.485C85.8076 175.071 85.8076 176.021 86.3934 176.607C86.9792 177.192 87.9289 177.192 88.5147 176.607L97 168.121L105.485 176.607C106.071 177.192 107.021 177.192 107.607 176.607C108.192 176.021 108.192 175.071 107.607 174.485L98.0607 164.939ZM98.5 224V166H95.5V224H98.5Z" fill="white"/>
</svg>
