<svg width="446" height="554" viewBox="0 0 446 554" fill="none" xmlns="http://www.w3.org/2000/svg">
<rect width="253" height="253" rx="30" fill="#4A4646"/>
<path d="M14.9375 89.8125H94.375L98.875 110.438H94.375C91.1667 105.062 87.8125 101.125 84.3125 98.625C80.8125 96.125 77.5 94.625 74.375 94.125C71.2917 93.625 67.25 93.3333 62.25 93.25V164.312C62.25 167.062 62.6875 169.167 63.5625 170.625C64.4375 172.042 65.875 173.021 67.875 173.562C69.875 174.104 72.6667 174.438 76.25 174.562V178H32.4375V174.562C36.0625 174.479 38.8333 174.208 40.75 173.75C42.7083 173.25 44.1667 172.25 45.125 170.75C46.125 169.208 46.625 166.812 46.625 163.562V93.25C42.125 93.2917 38.2083 93.75 34.875 94.625C31.5417 95.4583 28.75 96.6042 26.5 98.0625C24.25 99.5208 22.375 101.083 20.875 102.75C19.4167 104.375 17.25 106.938 14.375 110.438H10.5625L14.9375 89.8125ZM91.8125 103.25L89 93.25H77.25C80.4167 94.25 83.0625 95.5417 85.1875 97.125C87.3125 98.7083 89.5208 100.75 91.8125 103.25ZM52.6875 162.125V100.688C52.6875 98.2708 52.3958 96.4583 51.8125 95.25C51.2708 94.0417 50.2292 93.375 48.6875 93.25V164.312C48.6875 166.896 48.375 168.958 47.75 170.5C47.125 172.042 45.9583 173.396 44.25 174.562H45.625C48.6667 174.562 50.6042 173.604 51.4375 171.688C52.2708 169.771 52.6875 166.583 52.6875 162.125ZM26.5625 93.25H16.4375L14 103.875C16.125 101.083 17.9792 99.0208 19.5625 97.6875C21.1458 96.3125 23.4792 94.8333 26.5625 93.25Z" fill="white"/>
<path d="M197.641 141.719C197.641 141.844 197.844 142.297 198.25 143.078C198.656 143.859 198.859 144.594 198.859 145.281C198.859 146.625 198.297 147.828 197.172 148.891C196.078 149.922 194.703 150.438 193.047 150.438C191.453 150.438 190.188 150.031 189.25 149.219C188.312 148.375 187.844 147.406 187.844 146.312C187.844 144.688 188.625 143.094 190.188 141.531C191.781 139.969 193.953 138.703 196.703 137.734C199.484 136.734 202.547 136.234 205.891 136.234C208.328 136.234 210.594 136.656 212.688 137.5C214.812 138.344 216.5 139.625 217.75 141.344C219 143.062 219.625 145.141 219.625 147.578V171.391C219.625 173.297 220.172 174.25 221.266 174.25C221.922 174.25 222.719 173.734 223.656 172.703L225.391 174.719C223.859 176.25 222.438 177.406 221.125 178.188C219.844 178.969 218.312 179.359 216.531 179.359C214.469 179.359 212.859 178.906 211.703 178C210.547 177.062 209.734 175.625 209.266 173.688C204.953 177.406 200.688 179.266 196.469 179.266C193.469 179.266 191.078 178.484 189.297 176.922C187.547 175.359 186.672 173.375 186.672 170.969C186.672 168.812 187.203 166.984 188.266 165.484C189.359 163.953 190.781 162.609 192.531 161.453C194.312 160.266 196.922 158.781 200.359 157C203.797 155.188 206.625 153.641 208.844 152.359V145.281C208.844 143.156 208.359 141.547 207.391 140.453C206.422 139.359 204.969 138.812 203.031 138.812C201.344 138.812 200.016 139.125 199.047 139.75C198.109 140.344 197.641 141 197.641 141.719ZM210.391 148.328V166.844C210.391 170.5 210.781 173.234 211.562 175.047C212.344 176.828 213.875 177.719 216.156 177.719C217.188 177.719 218.016 177.594 218.641 177.344C216.766 177.062 215.438 176.312 214.656 175.094C213.875 173.875 213.484 171.969 213.484 169.375V147.859C213.484 144.609 213.016 142.375 212.078 141.156C211.172 139.906 209.594 139.156 207.344 138.906C208.562 139.531 209.375 140.438 209.781 141.625C210.188 142.812 210.391 145.047 210.391 148.328ZM208.844 170.594V155.547C204.844 157.797 202.047 159.828 200.453 161.641C198.891 163.453 198.109 165.641 198.109 168.203C198.109 169.922 198.578 171.25 199.516 172.188C200.453 173.125 201.547 173.594 202.797 173.594C204.766 173.594 206.781 172.594 208.844 170.594ZM200.594 177.062C197.75 177.062 195.469 176.484 193.75 175.328C192.062 174.172 191.219 172.5 191.219 170.312C191.219 168.719 191.625 167.219 192.438 165.812C193.281 164.375 194.531 162.781 196.188 161.031C193.656 162.5 191.688 164 190.281 165.531C188.906 167.062 188.219 168.875 188.219 170.969C188.219 172.875 189.047 174.469 190.703 175.75C192.391 177 194.219 177.625 196.188 177.625C198.094 177.625 199.562 177.438 200.594 177.062ZM196.188 147.484C195.062 147.578 194.203 147.359 193.609 146.828C193.016 146.297 192.719 145.672 192.719 144.953C192.719 143.984 192.984 143.125 193.516 142.375C194.047 141.594 194.969 140.484 196.281 139.047C194.062 140.172 192.359 141.297 191.172 142.422C189.984 143.547 189.391 144.812 189.391 146.219C189.391 146.844 189.703 147.438 190.328 148C190.984 148.531 191.75 148.797 192.625 148.797C194.125 148.797 195.312 148.359 196.188 147.484Z" fill="white"/>
<path d="M159.492 158.417C160.275 158.145 160.689 157.29 160.417 156.508L155.987 143.755C155.715 142.973 154.861 142.559 154.078 142.831C153.295 143.102 152.881 143.957 153.153 144.74L157.091 156.075L145.755 160.013C144.973 160.285 144.559 161.139 144.831 161.922C145.102 162.705 145.957 163.119 146.74 162.847L159.492 158.417ZM94.3461 127.35L158.346 158.35L159.654 155.65L95.6539 124.65L94.3461 127.35Z" fill="white"/>
</svg>
