<svg width="253" height="253" viewBox="0 0 253 253" fill="none" xmlns="http://www.w3.org/2000/svg">
<rect width="253" height="253" rx="30" fill="#4A4646"/>
<path d="M52.8906 119.812C52.8906 118.969 52.4531 118.266 51.5781 117.703C50.7031 117.109 49.6406 116.812 48.3906 116.812C46.0469 116.812 43.9219 117.5 42.0156 118.875C40.1094 120.219 38.6094 122.172 37.5156 124.734C36.4531 127.266 35.9219 130.141 35.9219 133.359C35.9219 136.328 36.5469 139.031 37.7969 141.469C39.0781 143.875 40.7812 145.75 42.9062 147.094C45.0625 148.438 47.4062 149.109 49.9375 149.109C52.0312 149.109 54.2188 148.641 56.5 147.703C58.8125 146.734 60.6562 145.5 62.0312 144L63.6719 146.203C61.2031 149.766 58.2344 152.5 54.7656 154.406C51.3281 156.312 47.8281 157.266 44.2656 157.266C40.9531 157.266 37.7812 156.359 34.75 154.547C31.75 152.734 29.3438 150.281 27.5312 147.188C25.75 144.062 24.8594 140.656 24.8594 136.969C24.8594 133.969 25.4062 131.109 26.5 128.391C27.5938 125.672 29.1562 123.25 31.1875 121.125C33.25 118.969 35.6875 117.281 38.5 116.062C41.3125 114.844 44.4219 114.234 47.8281 114.234C50.5781 114.234 53.0781 114.656 55.3281 115.5C57.5781 116.312 59.3438 117.453 60.625 118.922C61.9375 120.391 62.5938 122 62.5938 123.75C62.5938 125.281 62.0312 126.547 60.9062 127.547C59.7812 128.547 58.4531 129.047 56.9219 129.047C55.5156 129.047 54.3438 128.562 53.4062 127.594C52.5 126.594 52.0469 125.531 52.0469 124.406C52.0469 124.188 52.1875 123.484 52.4688 122.297C52.75 121.078 52.8906 120.25 52.8906 119.812ZM53.5938 124.406C53.5938 125.406 53.9688 126.156 54.7188 126.656C55.5 127.156 56.3438 127.406 57.25 127.406C57.5312 127.406 58.2969 127.281 59.5469 127.031C57.6094 126.625 56.6406 125.625 56.6406 124.031C56.6406 123.906 56.7031 123.547 56.8281 122.953C56.9844 122.359 57.0625 121.859 57.0625 121.453C57.0625 119.734 55.8438 118.422 53.4062 117.516C54.0938 118.484 54.4375 119.375 54.4375 120.188C54.4375 120.719 54.2969 121.438 54.0156 122.344C53.7344 123.25 53.5938 123.938 53.5938 124.406ZM40.4219 117.141C37.4219 118.266 34.875 119.812 32.7812 121.781C30.7188 123.75 29.1406 126.047 28.0469 128.672C26.9531 131.266 26.4062 133.906 26.4062 136.594C26.4062 140.25 27.2812 143.531 29.0312 146.438C30.7812 149.344 33.0781 151.609 35.9219 153.234C38.7969 154.828 41.7031 155.625 44.6406 155.625C48.9219 155.625 52.9531 154.219 56.7344 151.406C52.6406 152.75 49.3438 153.422 46.8438 153.422C43.6562 153.422 40.7344 152.703 38.0781 151.266C35.4219 149.828 33.3125 147.828 31.75 145.266C30.1875 142.703 29.4062 139.844 29.4062 136.688C29.4062 133.031 30.3438 129.531 32.2188 126.188C34.125 122.812 36.8594 119.797 40.4219 117.141ZM67.8906 135.844C67.8906 131.844 68.8281 128.188 70.7031 124.875C72.6094 121.562 75.1875 118.969 78.4375 117.094C81.7188 115.188 85.3438 114.234 89.3125 114.234C93.1875 114.234 96.7188 115.156 99.9062 117C103.125 118.844 105.656 121.391 107.5 124.641C109.344 127.891 110.266 131.5 110.266 135.469C110.266 138.5 109.703 141.375 108.578 144.094C107.484 146.781 105.953 149.109 103.984 151.078C102.047 153.016 99.8125 154.516 97.2812 155.578C94.75 156.641 92.0312 157.172 89.125 157.172C85.2188 157.172 81.6406 156.281 78.3906 154.5C75.1719 152.719 72.6094 150.219 70.7031 147C68.8281 143.75 67.8906 140.031 67.8906 135.844ZM84.5312 155.344C80.4688 152.875 77.4219 149.953 75.3906 146.578C73.3594 143.203 72.3438 139.5 72.3438 135.469C72.3438 132.406 72.8281 129.719 73.7969 127.406C74.7656 125.094 76.0312 123.109 77.5938 121.453C79.1875 119.766 81.1719 118.031 83.5469 116.25C80.3906 117.375 77.75 118.953 75.625 120.984C73.5 123.016 71.9375 125.344 70.9375 127.969C69.9375 130.562 69.4375 133.312 69.4375 136.219C69.4375 138.344 69.7656 140.438 70.4219 142.5C71.0781 144.562 72.0312 146.422 73.2812 148.078C74.5625 149.734 76.1406 151.188 78.0156 152.438C79.8906 153.688 82.0625 154.656 84.5312 155.344ZM79.5156 133.172C79.5156 139.828 80.4844 145.062 82.4219 148.875C84.3594 152.656 86.875 154.547 89.9688 154.547C91.5312 154.547 92.9844 153.906 94.3281 152.625C95.6719 151.312 96.7344 149.391 97.5156 146.859C98.3281 144.297 98.7344 141.172 98.7344 137.484C98.7344 130.984 97.8594 125.922 96.1094 122.297C94.3906 118.641 92 116.812 88.9375 116.812C85.9688 116.812 83.6562 118.188 82 120.938C80.3438 123.656 79.5156 127.734 79.5156 133.172ZM96.0625 152.906C98.4062 151.625 100.203 149.594 101.453 146.812C102.703 144.031 103.328 140.625 103.328 136.594C103.328 126.656 100.266 120.172 94.1406 117.141C96.3281 119.328 97.8906 122.016 98.8281 125.203C99.7969 128.391 100.281 132.672 100.281 138.047C100.281 141.453 99.9219 144.312 99.2031 146.625C98.5156 148.906 97.4688 151 96.0625 152.906ZM131.266 114.234V119.344C133.453 117.719 135.562 116.469 137.594 115.594C139.625 114.688 141.906 114.234 144.438 114.234C146.875 114.234 149.234 114.766 151.516 115.828C153.828 116.891 155.844 118.359 157.562 120.234C159.312 122.109 160.703 124.375 161.734 127.031C162.797 129.688 163.328 132.5 163.328 135.469C163.328 139.594 162.359 143.312 160.422 146.625C158.484 149.938 155.812 152.531 152.406 154.406C149.031 156.25 145.25 157.172 141.062 157.172C137.781 157.172 134.516 156.469 131.266 155.062V171.281C131.266 172.5 131.391 173.469 131.641 174.188C131.891 174.938 132.422 175.484 133.234 175.828C134.047 176.172 135.188 176.344 136.656 176.344H139.047V178.922H114.578V176.25C116.172 176.188 117.359 176.078 118.141 175.922C118.922 175.766 119.516 175.391 119.922 174.797C120.328 174.203 120.531 173.312 120.531 172.125V127.781C120.531 125.375 120.047 123.562 119.078 122.344C118.141 121.094 116.547 120.094 114.297 119.344V117.422L129.438 114.234H131.266ZM125.125 169.641V127.312C125.125 124.406 124.547 122.297 123.391 120.984C122.234 119.672 120.312 119.125 117.625 119.344C119.375 120.312 120.547 121.344 121.141 122.438C121.766 123.5 122.078 125.219 122.078 127.594V171.75C122.078 173 121.938 173.984 121.656 174.703C121.375 175.453 120.844 176.125 120.062 176.719C122.188 176.531 123.562 175.922 124.188 174.891C124.812 173.859 125.125 172.109 125.125 169.641ZM131.266 122.766V150.422C134.234 153.172 137.047 154.547 139.703 154.547C141.859 154.547 143.828 153.891 145.609 152.578C147.391 151.266 148.812 149.281 149.875 146.625C150.969 143.938 151.516 140.656 151.516 136.781C151.516 133 151 129.812 149.969 127.219C148.938 124.594 147.516 122.625 145.703 121.312C143.922 120 141.922 119.344 139.703 119.344C136.984 119.344 134.172 120.484 131.266 122.766ZM138.766 117.891H139.891C143.859 117.891 147.047 119.547 149.453 122.859C151.859 126.141 153.062 130.781 153.062 136.781C153.062 141.406 152.469 144.969 151.281 147.469C150.094 149.969 148.453 152.078 146.359 153.797C148.547 152.984 150.359 151.797 151.797 150.234C153.234 148.672 154.312 146.719 155.031 144.375C155.781 142.031 156.156 139.406 156.156 136.5C156.156 133 155.719 129.953 154.844 127.359C154 124.734 152.922 122.672 151.609 121.172C150.297 119.672 148.891 118.578 147.391 117.891C145.922 117.172 144.516 116.812 143.172 116.812C141.828 116.812 140.359 117.172 138.766 117.891ZM196.891 115.031H213.062V117.422C211.531 118.078 210.234 118.891 209.172 119.859C208.109 120.797 207.203 121.875 206.453 123.094C205.734 124.281 204.938 125.844 204.062 127.781C203.219 129.688 202.375 131.734 201.531 133.922L188.922 165.984C185.547 174.703 181.047 179.062 175.422 179.062C173.578 179.062 171.984 178.547 170.641 177.516C169.328 176.516 168.672 175.297 168.672 173.859C168.672 172.609 169.188 171.562 170.219 170.719C171.281 169.875 172.531 169.453 173.969 169.453C174.656 169.453 175.406 169.625 176.219 169.969C177.062 170.312 177.875 170.656 178.656 171C179.469 171.375 180.203 171.562 180.859 171.562C182.922 171.562 184.781 169.422 186.438 165.141L188.922 158.391L174.812 125.578C174.438 124.609 174.016 123.625 173.547 122.625C173.109 121.594 172.625 120.703 172.094 119.953C171.562 119.203 170.891 118.609 170.078 118.172C169.266 117.703 168.266 117.453 167.078 117.422V115.031H191.453V117.422C189.516 117.547 188.031 117.844 187 118.312C186 118.75 185.5 119.625 185.5 120.938C185.5 122.281 185.938 124.016 186.812 126.141L194.594 144.094L200.453 129.703C201.234 127.828 201.625 125.812 201.625 123.656C201.625 120.156 200.047 118.078 196.891 117.422V115.031ZM207.859 117.609H200.453C201.391 118.359 202.016 119.141 202.328 119.953C202.672 120.734 202.922 121.969 203.078 123.656C203.797 122.062 204.5 120.844 205.188 120C205.875 119.125 206.766 118.328 207.859 117.609ZM189.906 156L191.453 152.25L179.359 124.219C178.453 122.094 177.688 120.578 177.062 119.672C176.469 118.734 175.75 118.094 174.906 117.75C174.094 117.406 173.016 117.297 171.672 117.422C172.922 118.547 173.766 119.547 174.203 120.422C174.672 121.297 175.391 122.859 176.359 125.109L189.906 156ZM177.062 177.609C174.5 177.016 173.219 175.797 173.219 173.953C173.219 172.797 173.984 171.844 175.516 171.094C174.547 170.812 173.875 170.672 173.5 170.672C172.531 170.672 171.734 170.969 171.109 171.562C170.516 172.188 170.219 172.922 170.219 173.766C170.219 175.016 170.812 176.016 172 176.766C173.188 177.516 174.875 177.797 177.062 177.609Z" fill="white"/>
</svg>
