<?xml version="1.0" encoding="UTF-8" standalone="no"?>
<!-- Created with Inkscape (http://www.inkscape.org/) -->

<svg
   width="20.06045mm"
   height="20.06044mm"
   viewBox="0 0 20.06045 20.06044"
   version="1.1"
   id="svg1"
   xml:space="preserve"
   xmlns:inkscape="http://www.inkscape.org/namespaces/inkscape"
   xmlns:sodipodi="http://sodipodi.sourceforge.net/DTD/sodipodi-0.dtd"
   xmlns="http://www.w3.org/2000/svg"
   xmlns:svg="http://www.w3.org/2000/svg"><sodipodi:namedview
     id="namedview1"
     pagecolor="#ffffff"
     bordercolor="#000000"
     borderopacity="0.25"
     inkscape:showpageshadow="2"
     inkscape:pageopacity="0.0"
     inkscape:pagecheckerboard="0"
     inkscape:deskcolor="#d1d1d1"
     inkscape:document-units="mm"
     showguides="true" /><defs
     id="defs1" /><g
     inkscape:label="Layer 1"
     inkscape:groupmode="layer"
     id="layer1"
     transform="translate(-24.566134,-19.97133)"><g
       id="g2"><g
         id="g1"
         transform="matrix(2.8173068e-5,0.02995808,0.02868766,-2.9420693e-5,41.191601,49.02487)"
         style="fill:#000000;stroke:none" /><g
         id="g4"><rect
           style="fill:#000000;fill-opacity:0;stroke:#000000;stroke-width:0.600001;stroke-linecap:round;stroke-linejoin:round;stroke-miterlimit:2;stroke-dasharray:none;paint-order:stroke fill markers"
           id="rect6"
           width="188.44402"
           height="119.64093"
           x="7.1855612"
           y="86.50032" /><g
           id="g7"><g
             id="g6"><g
               id="g5"
               transform="matrix(-4.2364072e-5,-1,1.005919,-4.2114795e-5,-42.314967,247.39803)"><path
                 d="M 0,2085 V 0 h 2943.7256 2943.7256 l -93.9926,136 c -51.6443,75 -95.0255,147 -97.0913,160 -3.0987,31 -222.0705,352 -244.794,359 -9.296,3 -180.7551,247 -380.1021,542 -264.4189,390 -365.6418,546 -368.7404,572 -4.1316,30 0,43 21.6906,68 15.4933,17 265.4517,179 556.7256,359 290.2411,180 631.0935,391 756.0727,469 124.9793,77 272.682,168 327.425,200 l 100.1899,60 1.0329,259 c 0,242 -1.0329,258 -17.5591,252 -16.5261,-5 -16.5261,-4 1.0329,8 10.3289,8 16.5262,20 14.4604,26 -1.0329,5 -192.1168,-101 -423.4833,-237 -231.3665,-136 -418.3189,-250 -416.2531,-253 2.0657,-3 -8.2631,-6 -22.7235,-6 -22.7235,-2 -23.7564,-1 -9.296,15 19.6248,20 21.6906,41 5.1644,41 -6.1973,0 -9.296,-7 -5.1644,-15 5.1644,-14 -28.9208,-45 -50.6114,-45 -5.1645,0 -20.6578,16 -33.0524,35 l -23.7564,34 30.9866,30 c 34.0853,33 39.2497,51 14.4604,51 -10.3288,0 -13.4275,-6 -9.296,-19 4.1316,-13 -2.0657,-23 -19.6248,-35 -24.7893,-15 -26.855,-15 -37.1839,4 -9.296,18 -6.1973,25 19.6248,49 32.0195,29 43.3813,56 19.6249,48 -7.2302,-2 -12.3947,-11 -10.3289,-19 1.0329,-9 -9.296,-23 -22.7235,-32 -25.8221,-16 -26.855,-15 -57.8416,29 l -30.9866,44 37.1839,34 c 26.855,24 35.1181,36 25.8222,41 -8.2631,5 -14.4604,1 -18.592,-13 -3.0986,-11 -16.5262,-27 -29.9537,-36 -21.6906,-14 -24.7893,-14 -35.1181,4 -8.2631,16 -4.1316,24 25.8221,50 40.2826,34 43.3813,41 20.6578,41 -8.2631,0 -15.4933,-6 -15.4933,-13 0,-8 -9.296,-22 -20.6578,-32 -20.6577,-18 -21.6906,-18 -39.2496,-1 -16.5262,16 -15.4933,19 21.6906,52 21.6906,20 37.1839,38 34.0852,41 -3.0986,3 -19.6248,-9 -38.2168,-26 -30.9866,-30 -34.0852,-31 -49.5785,-16 -15.4933,15 -13.4275,19 23.7564,51 22.7235,19 37.1839,37 33.0523,41 -4.1315,4 -18.5919,-7 -33.0523,-25 -28.9208,-35 -49.5786,-41 -59.9074,-15 -5.1644,11 5.1644,27 29.9537,50 19.6248,18 30.9866,33 25.8221,33 -6.1973,0 -23.7563,-14 -40.2825,-32 l -28.9208,-32 -12.3947,23 c -11.3617,20 -10.3288,26 10.3289,47 12.3946,13 28.9208,24 37.1839,24 7.2302,0 13.4275,5 13.4275,10 0,18 -22.7235,10 -43.3812,-15 -22.7235,-28 -47.5128,-32 -56.8087,-9 -6.1974,17 34.0852,64 55.7758,64 7.2302,0 13.4275,5 13.4275,10 0,16 -10.3288,12 -53.7101,-24 -26.855,-23 -47.5127,-32 -57.8416,-28 -16.5262,6 -16.5262,7 0,10 9.296,2 15.4933,9 12.3947,16 -3.0987,7 12.3946,27 32.0194,45 20.6577,18 35.1182,35 33.0524,38 -3.0987,2 -26.8551,-16 -53.7101,-41 -47.5128,-45 -70.2363,-55 -82.6309,-36 -3.0987,5 6.1973,12 20.6577,16 18.592,4 24.7893,11 20.6578,23 -6.1974,18 26.855,53 60.9402,65 14.4604,5 16.5262,10 9.296,17 -8.2631,8 -21.6906,0 -47.5128,-27 l -35.1181,-38 -13.4275,23 c -10.3289,20 -9.296,26 11.3617,47 12.3947,13 28.9209,24 37.1839,24 7.2303,0 13.4276,7 13.4276,16 0,12 -9.296,8 -36.151,-15 -20.6578,-17 -40.2826,-31 -45.447,-31 -5.1645,0 -20.6578,17 -35.1182,39 l -26.855,39 28.9208,26 c 15.4933,14 36.151,26 45.447,26 17.5591,0 22.7235,11 11.3617,23 -4.1315,4 -25.8221,-10 -48.5456,-29 l -40.2826,-36 -32.0194,47 -32.0195,47 29.9537,22 c 17.5591,11 37.1839,21 45.447,21 8.2631,0 16.5262,6 19.6248,13 7.2302,21 -19.6248,13 -59.9074,-18 -34.0852,-26 -40.2825,-28 -51.6443,-15 -17.5591,20 -4.1315,49 18.592,43 12.3946,-4 18.5919,1 18.5919,13 0,18 -9.296,16 -40.2825,-10 -16.5262,-13 -19.6249,-13 -27.888,-1 -14.4604,22 -12.3946,28 10.3289,42 11.3617,7 20.6577,17 20.6577,22 0,5 -8.2631,2 -18.5919,-7 -24.7893,-22 -39.2497,-21 -48.5457,0 -7.2302,20 39.2497,63 70.2363,63 17.559,0 22.7235,11 10.3288,23 -3.0986,4 -15.4933,0 -25.8221,-9 -15.4933,-14 -20.6577,-15 -36.151,-3 -16.5262,12 -17.5591,12 -6.1974,-2 11.3618,-13 10.3289,-19 -5.1644,-32 -14.4604,-13 -21.6906,-14 -30.9866,-5 -7.2302,7 -12.3946,18 -12.3946,24 0,16 56.8087,55 73.3349,52 6.1973,-2 14.4604,3 16.5262,10 6.1973,15 -19.6248,16 -36.151,0 -8.2631,-8 -15.4933,-8 -29.9537,3 -16.5262,12 -17.5591,12 -6.1973,-2 11.3617,-13 10.3288,-19 -5.1645,-32 -14.4604,-13 -21.6906,-14 -30.9866,-5 -7.2302,7 -12.3946,18 -12.3946,24 0,16 58.8745,57 71.2692,49 5.1644,-3 13.4275,0 16.5261,6 11.3618,17 -1.0329,22 -25.8221,9 -16.5262,-9 -25.8222,-9 -37.1839,0 -17.5591,15 -9.296,30 17.559,30 10.3289,0 19.6249,5 19.6249,10 0,18 -25.8222,10 -64.039,-20 -36.151,-29 -39.2496,-30 -48.5456,-12 -6.1973,12 -7.2302,22 -1.0329,28 6.1973,6 -16.5262,11 -60.9403,12 -69.2034,3 -71.2691,3 -77.4665,-24 -5.1644,-18 -3.0986,-30 6.1974,-36 11.3617,-6 11.3617,-10 0,-17 -10.3289,-6 -8.2631,-10 8.2631,-14 12.3946,-3 24.7892,-15 27.8879,-26 3.0986,-12 9.296,-21 13.4275,-21 15.4933,0 61.9732,-46 61.9732,-62 0,-9 7.2302,-19 16.5262,-22 9.2959,-3 14.4604,-12 11.3617,-19 -2.0658,-6 3.0987,-17 12.3946,-24 9.296,-6 16.5262,-26 17.5591,-44 1.0329,-18 9.296,-38 18.592,-44 9.2959,-7 16.5261,-17 16.5261,-23 0,-6 7.2302,-9 15.4933,-6 8.2631,4 15.4933,2 15.4933,-4 0,-6 3.0987,-18 7.2302,-28 5.1644,-13 3.0987,-15 -8.2631,-9 -8.2631,5 -11.3617,4 -6.1973,-1 5.1644,-5 16.5262,-9 25.8222,-9 9.2959,0 17.559,-5 17.559,-12 0,-7 9.296,-19 20.6578,-28 18.5919,-15 17.559,-15 -12.3947,0 -63.006,29 -34.0852,8 53.7101,-41 58.8745,-33 85.7296,-54 82.6309,-63 -4.1315,-9 1.0329,-12 14.4604,-8 10.3289,2 25.8222,1 33.0524,-4 11.3617,-6 10.3288,-12 -4.1316,-27 -17.559,-19 -28.9208,-14 -500.9498,249 -265.4517,147 -503.0156,280 -526.7719,294 -44.4141,25 -45.447,26 -28.9208,50 l 16.5261,25 H 2024.4569 0 Z m 4832.8744,2032 c 8.2631,-11 6.1974,-18 -8.263,-31 -16.5262,-15 -19.6249,-15 -32.0195,-1 -10.3289,12 -10.3289,18 0,30 15.4933,19 24.7893,19 40.2825,2 z M 3390.9653,3792 c 38.2168,-37 69.2034,-70 69.2034,-74 0,-18 -49.5785,-6 -73.3349,18 -29.9537,32 -73.3349,54 -103.2886,54 -18.592,0 -19.6249,-2 -9.296,-15 7.2302,-8 10.3289,-21 7.2302,-30 -4.1315,-8 -2.0658,-17 4.1315,-21 6.1974,-4 6.1974,-11 -2.0657,-20 -6.1973,-7 -8.2631,-25 -5.1645,-38 7.2302,-28 -9.2959,-45 -18.5919,-20 -3.0987,9 -6.1973,35 -6.1973,59 0,24 -4.1316,55 -10.3289,69 -12.3946,34 -2.0658,84 19.6248,89 33.0524,9 58.8746,-6 128.0779,-71 z m -48.5456,-75 c 2.0658,-18 -2.0658,-27 -11.3618,-27 -21.6906,0 -38.2168,34 -22.7235,49 17.5591,17 29.9537,9 34.0853,-22 z m 45.447,-17 c 13.4275,-8 13.4275,-10 -2.0658,-10 -9.296,0 -20.6577,5 -23.7564,10 -8.2631,13 5.1645,13 25.8222,0 z m -46.4799,-35 c -16.5262,-7 -33.0524,-11 -36.151,-9 -7.2302,8 24.7892,24 46.4799,23 15.4933,0 13.4275,-4 -10.3289,-14 z m 25.8222,-24 c 0,-5 -7.2303,-14 -15.4933,-21 -14.4604,-11 -11.3618,-15 17.559,-29 39.2497,-18 71.2692,-47 63.0061,-55 -4.1316,-3 -1.0329,-6 5.1644,-6 7.2302,0 12.3946,9 12.3946,20 0,27 23.7564,35 65.0719,23 l 33.0523,-9 -28.9208,-19 c -47.5127,-30 -239.6296,-22 -273.7148,12 -11.3618,11 -11.3618,14 2.0658,19 9.2959,3 32.0194,21 51.6443,40 33.0523,32 68.1705,45 68.1705,25 z m -474.0948,-78 c 1.0329,-27 3.0987,-78 5.1644,-115 1.0329,-46 -2.0657,-70 -11.3617,-78 -20.6577,-17 -46.4799,26 -46.4799,79 0,51 28.9208,161 42.3483,161 5.1645,0 10.3289,-21 10.3289,-47 z m 172.492,-10 c 67.1376,-40 67.1376,-38 15.4933,-109 -24.7893,-35 -50.6114,-64 -55.7759,-64 -5.1644,0 -9.2959,-6 -9.2959,-14 0,-17 -29.9537,-25 -56.8088,-15 -11.3617,4 -16.5262,8 -11.3617,8 5.1644,1 1.0328,11 -10.3289,22 -19.6248,22 -19.6248,22 2.0658,11 24.7892,-12 35.1181,-7 35.1181,17 0,14 -2.0658,14 -11.3617,1 -7.2302,-11 -8.2631,-6 -3.0987,20 4.1315,19 7.2302,45 6.1973,58 -2.0658,26 23.7564,30 37.1839,5 9.296,-16 12.3947,-16 37.1839,1 15.4933,9 32.0195,14 37.1839,11 6.1973,-3 10.3289,-2 10.3289,3 0,5 -17.5591,21 -38.2168,35 -42.3483,29 -29.9537,37 15.4933,10 z m -70.2363,-18 c 0,-8 -4.1315,-15 -10.3288,-15 -5.1645,0 -10.3289,7 -10.3289,15 0,8 5.1644,15 10.3289,15 6.1973,0 10.3288,-7 10.3288,-15 z m 224.1363,9 c -3.0986,-3 -12.3946,-4 -19.6248,-1 -8.2631,3 -5.1644,6 6.1973,6 11.3618,1 17.5591,-2 13.4275,-5 z m -280.945,-25 c 12.3946,-19 -5.1644,-23 -22.7235,-6 -16.5262,16 -16.5262,17 -1.0329,17 9.296,0 20.6577,-5 23.7564,-11 z m 1786.8931,-34 c 232.3994,-47 444.141,-231 521.6075,-455 35.1181,-99 40.2826,-262 12.3946,-368 -82.6309,-316 -359.4444,-525 -694.0995,-525 -193.1497,0 -355.3128,65 -490.6209,197 -289.2081,282 -278.8793,718 23.7564,986 80.5651,72 221.0376,144 322.2605,164 88.8282,19 214.8403,19 304.7014,1 z m -1791.0247,-41 c -24.7892,-31 -25.8221,-29 -10.3288,15 8.2631,22 15.4933,29 22.7235,22 6.1973,-6 3.0986,-19 -12.3947,-37 z m 310.8988,-16 c -5.1644,-34 -18.592,-58 -34.0853,-58 -14.4604,0 -11.3617,78 4.1316,83 27.8879,12 34.0852,6 29.9537,-25 z m 49.5785,-51 c 0,-78 -45.447,-128 -53.7101,-60 -5.1644,40 3.0987,75 24.7893,97 19.6248,21 28.9208,9 28.9208,-37 z m 199.3471,-30 c -22.7235,-52 -37.184,-70 -71.2692,-90 -23.7564,-14 -53.7101,-28 -67.1376,-31 -23.7564,-7 -23.7564,-6 3.0987,10 14.4604,10 46.4798,47 71.2691,83 39.2497,60 81.598,105 89.8611,96 2.0658,-1 -9.296,-32 -25.8221,-68 z m 2864.1933,38 c -11.3617,-8 -25.8221,-15 -30.9866,-15 -6.1973,1 0,7 14.4605,15 33.0523,19 41.3154,18 16.5261,0 z m -104.3215,-63 c -81.598,-50 -95.0255,-57 -84.6966,-46 14.4604,15 124.9792,83 136.3409,83 6.1974,1 -17.559,-16 -51.6443,-37 z m -118.7819,-72 c -14.4604,-11 -29.9537,-20 -36.151,-20 -5.1644,0 4.1315,9 20.6577,20 39.2497,25 49.5786,25 15.4933,0 z m -97.0913,-53 c -119.8148,-74 -155.9658,-95 -159.0645,-92 -5.1644,5 25.8222,35 36.1511,36 4.1315,1 26.855,11 49.5785,24 66.1047,36 82.6309,44 87.7953,44 3.0987,0 -3.0986,-6 -14.4604,-12 z m -171.4591,-101 c 0,-5 -133.2423,-86 -140.4725,-86 -3.0987,0 -20.6577,-11 -39.2497,-25 -40.2825,-29 -47.5127,-31 -47.5127,-8 0,9 3.0986,13 7.2302,10 7.2302,-7 80.5651,31 133.2423,70 17.559,12 37.1839,23 43.3812,23 7.2302,0 12.3946,5 12.3946,10 0,6 7.2302,10 15.4933,10 8.2631,0 15.4933,-2 15.4933,-4 z m -280.945,-138 c 17.559,-17 15.4933,-28 -7.2302,-28 -22.7235,0 -36.151,15 -26.8551,30 8.2631,13 18.592,13 34.0853,-2 z m 43.3812,-2 c 0,-3 -4.1316,-8 -10.3289,-11 -5.1644,-3 -10.3288,-1 -10.3288,4 0,6 5.1644,11 10.3288,11 6.1973,0 10.3289,-2 10.3289,-4 z"
                 id="path1"
                 style="fill:#000000;stroke:none;stroke-width:1.01631"
                 transform="matrix(2.8173069e-5,0.02995808,0.02868766,-2.9420693e-5,41.191601,49.024871)" /><path
                 d="m 53.530518,235.47149 c -0.402134,-0.53884 -0.430822,-0.53881 -0.114638,0.11995 0.172464,0.35932 0.373559,0.65869 0.430935,0.65863 0.229501,-2.3e-4 0.171985,-0.14996 -0.316297,-0.77858 z"
                 id="path35"
                 style="fill:#000000;stroke:none;stroke-width:0.029316" /><path
                 d="m 51.231843,231.57929 c -0.402135,-0.53883 -0.430822,-0.53881 -0.114638,0.11995 0.172464,0.35932 0.373559,0.65869 0.430934,0.65864 0.229502,-2.4e-4 0.171986,-0.14997 -0.316296,-0.77859 z"
                 id="path36"
                 style="fill:#000000;stroke:none;stroke-width:0.029316" /><g
                 id="g3"><path
                   d="m 160.18729,231.16797 c -0.97611,-0.77791 -9.84581,-6.31107 -10.56328,-6.60991 -0.31565,-0.0896 -0.60272,-0.29896 -0.6889,-0.41871 -0.22981,-0.3293 -12.68744,-7.95584 -13.92152,-8.49382 -0.63141,-0.29894 -1.72199,-0.77715 -2.43949,-1.10595 -1.46372,-0.68754 -1.37746,-0.47792 0.20132,0.53904 0.60281,0.38884 0.91868,0.71805 0.71787,0.71826 -0.459,4.7e-4 -1.80811,-0.83698 -2.26771,-1.46563 -0.20104,-0.23945 -0.43065,-0.35905 -0.51663,-0.26909 -0.34391,0.35985 3.38802,3.05225 9.76046,7.06011 8.38175,5.26403 7.89381,4.9949 8.23761,4.51522 0.2005,-0.32974 0.22919,-0.32977 0.20084,0.0297 -0.0285,0.2397 0.0293,0.68901 0.14437,0.98847 0.20121,0.41921 3.47368,2.63275 7.34869,4.93555 0.66018,0.38878 0.68887,0.38875 0.17207,-0.0601 -0.63164,-0.5386 -0.40222,-0.62871 0.43017,-0.15023 0.31571,0.14947 0.48809,0.41891 0.40219,0.59875 -0.11461,0.14991 0.0289,0.26959 0.28713,0.26933 0.25819,-2.7e-4 0.94695,0.26865 1.57839,0.59754 1.49249,0.77738 1.72196,0.74719 1.69237,-0.21144 -5.1e-4,-0.53925 -0.28786,-1.04824 -0.77595,-1.46715 z m -0.19923,1.67786 c -0.2295,2.3e-4 -0.43043,-0.11939 -0.43057,-0.26918 -3.7e-4,-0.38946 0.45838,-0.65955 0.68811,-0.42012 0.31587,0.32921 0.17277,0.68886 -0.25754,0.6893 z"
                   id="path3"
                   style="fill:#000000;stroke:none;stroke-width:0.029316" /><path
                   d="m 159.93268,234.97291 c -2.37966,1.50035 -2.37969,1.47039 -0.57237,1.46853 l 1.6352,-0.002 -0.001,-1.07849 -0.001,-1.0785 z"
                   id="path4"
                   style="fill:#000000;stroke:none;stroke-width:0.029316" /><path
                   d="m 155.36056,193.00629 c -0.37322,-0.2992 -0.43057,-0.26918 -0.43006,0.27006 3.4e-4,0.3595 0.17272,0.62894 0.43091,0.62868 0.2295,-2.4e-4 0.4302,-0.12027 0.43006,-0.27006 -1.4e-4,-0.14979 -0.20121,-0.41921 -0.43091,-0.62868 z"
                   id="path5"
                   style="fill:#000000;stroke:none;stroke-width:0.029316" /><path
                   d="m 154.18541,194.11594 c -0.22973,-0.23943 -0.68848,0.0307 -0.68811,0.42012 1.4e-4,0.14979 0.20107,0.26942 0.43057,0.26918 0.43031,-4.4e-4 0.57341,-0.36008 0.25754,-0.6893 z"
                   id="path6"
                   style="fill:#000000;stroke:none;stroke-width:0.029316" /><path
                   d="m 150.82983,195.04809 c -0.37339,-0.47895 -0.77536,-0.83804 -0.9188,-0.83789 -0.11475,1.2e-4 0.0577,0.32948 0.40231,0.71858 0.34462,0.3891 0.60325,0.86817 0.54608,1.07793 -0.0572,0.20977 0.0865,0.44929 0.28735,0.509 0.54526,0.20915 0.37241,-0.56959 -0.31694,-1.46762 z"
                   id="path7"
                   style="fill:#000000;stroke:none;stroke-width:0.029316" /><path
                   d="m 147.84792,196.75876 c -0.57438,-0.65849 -0.80407,-0.86796 -0.54549,-0.44882 0.25858,0.41915 0.54599,0.98806 0.66103,1.28752 0.0863,0.26954 0.34473,0.50894 0.54554,0.50873 0.51638,-5.3e-4 0.54509,0.0294 -0.66108,-1.34743 z"
                   id="path8"
                   style="fill:#000000;stroke:none;stroke-width:0.029316" /><path
                   d="m 148.50027,188.81919 c -0.0861,9e-5 -0.28663,0.26991 -0.45844,0.59963 -0.17182,0.32972 -0.22894,0.5994 -0.17156,0.59934 0.0861,-9e-5 0.28662,-0.26992 0.45843,-0.59963 0.17182,-0.32972 0.22894,-0.5994 0.17157,-0.59934 z"
                   id="path9"
                   style="fill:#000000;stroke:none;stroke-width:0.029316" /><path
                   d="m 133.60012,207.37854 c -0.0861,-0.0299 -0.31562,-0.0596 -0.48777,-0.0894 -0.14344,1.5e-4 -0.54541,-0.35893 -0.83268,-0.77805 -0.31596,-0.41909 -0.57431,-0.59858 -0.57414,-0.41883 5e-4,0.53925 1.63708,2.00552 1.83756,1.64581 0.11458,-0.17986 0.1431,-0.35964 0.057,-0.35955 z"
                   id="path10"
                   style="fill:#000000;stroke:none;stroke-width:0.029316" /><path
                   d="m 129.27085,210.10917 c -0.2295,2.3e-4 -0.43017,0.15023 -0.43003,0.30002 1.7e-4,0.17975 0.20109,0.29937 0.43059,0.29914 0.2295,-2.4e-4 0.43021,-0.12028 0.43004,-0.30002 -1.4e-4,-0.14979 -0.2011,-0.29938 -0.4306,-0.29914 z"
                   id="path11"
                   style="fill:#000000;stroke:none;stroke-width:0.029316" /><path
                   d="m 127.95065,209.51136 c -0.51699,-0.65855 -0.54568,-0.65852 -0.28696,-0.0896 0.17247,0.35932 0.45971,0.74848 0.60323,0.83821 0.43057,0.26918 0.34434,0.0895 -0.31627,-0.74863 z"
                   id="path12"
                   style="fill:#000000;stroke:none;stroke-width:0.029316" /><path
                   d="m 108.37425,227.89576 c -2.84444,-4.64059 -5.31524,-8.53261 -5.45882,-8.68226 -0.17224,-0.11965 -0.086,0.09 0.1726,0.50911 0.2299,0.41918 1.75274,2.96406 3.3905,5.68857 1.63776,2.7245 3.67782,6.16759 4.53983,7.63466 1.66654,2.81435 2.26977,3.65256 2.47035,3.41269 0.0573,-0.06 -2.24132,-3.92221 -5.11446,-8.56277 z"
                   id="path13"
                   style="fill:#000000;stroke:none;stroke-width:0.029316" /><path
                   d="m 111.07675,234.12427 c -0.45968,-0.71852 -0.89061,-1.37716 -0.97676,-1.46695 -0.2297,-0.20947 -3.32591,1.98065 -3.32554,2.37011 1.7e-4,0.17974 0.14397,0.56905 0.28772,0.89844 0.25864,0.47907 0.63166,0.56856 2.58243,0.56656 2.66795,-0.003 2.78253,-0.1826 1.43215,-2.36816 z"
                   id="path14"
                   style="fill:#000000;stroke:none;stroke-width:0.029316" /><path
                   d="m 108.49092,229.93279 c -0.45968,-0.71853 -0.89061,-1.37716 -0.97676,-1.46695 -0.2297,-0.20947 -5.04602,3.21069 -5.24632,3.75015 -0.17171,0.44954 1.55232,3.38367 1.98263,3.38323 0.57375,-5.9e-4 5.07445,-3.48035 5.07405,-3.89976 -2.2e-4,-0.23966 -0.37392,-1.04815 -0.8336,-1.76667 z"
                   id="path15"
                   style="fill:#000000;stroke:none;stroke-width:0.029316" /><path
                   d="m 105.96252,225.80116 c -0.43097,-0.68859 -0.86187,-1.31727 -0.97674,-1.43699 -0.17229,-0.17957 -6.049542,3.78093 -6.364628,4.29054 -0.200447,0.38966 1.609668,3.35366 2.068668,3.35319 0.65982,-6.8e-4 6.07801,-4.02062 6.04887,-4.49992 -2.3e-4,-0.23967 -0.34521,-1.01822 -0.77617,-1.70682 z"
                   id="path16"
                   style="fill:#000000;stroke:none;stroke-width:0.029316" /><path
                   d="m 106.28749,235.80684 c -0.28719,-0.32925 -0.80348,-0.23884 -1.40547,0.2411 -0.51601,0.38999 -0.48729,0.41992 0.54549,0.44881 1.00407,-0.001 1.31941,-0.24101 0.85998,-0.68991 z"
                   id="path17"
                   style="fill:#000000;stroke:none;stroke-width:0.029316" /><path
                   d="m 103.37668,221.60968 c -0.43096,-0.6886 -0.9479,-1.28723 -1.14871,-1.28702 -0.37294,3.8e-4 -7.941584,5.22085 -8.199379,5.64053 -0.200475,0.3597 1.667012,3.32364 2.068667,3.35319 0.688504,-7.1e-4 8.084762,-5.49063 8.055622,-5.96993 -2.5e-4,-0.26962 -0.37392,-1.04815 -0.7762,-1.73677 z"
                   id="path18"
                   style="fill:#000000;stroke:none;stroke-width:0.029316" /><path
                   d="m 102.47065,234.3428 c -0.48845,-0.80837 -1.00542,-1.43696 -1.20623,-1.43675 -0.57376,5.9e-4 -3.096551,1.83062 -3.096157,2.25003 0.0011,1.19833 0.288145,1.34782 2.755287,1.34529 2.75401,-0.003 2.81133,-0.0628 1.5471,-2.15857 z"
                   id="path19"
                   style="fill:#000000;stroke:none;stroke-width:0.029316" /><path
                   d="m 101.7086,217.14763 c -0.40213,-0.53883 -0.43082,-0.5388 -0.11464,0.11995 0.17247,0.35932 0.37356,0.6587 0.43094,0.65864 0.2295,-2.4e-4 0.17198,-0.14997 -0.3163,-0.77859 z"
                   id="path20"
                   style="fill:#000000;stroke:none;stroke-width:0.029316" /><path
                   d="m 100.73345,217.38829 c -0.63209,-1.01792 -1.264008,-1.8561 -1.436134,-1.85592 -0.372939,3.8e-4 -2.752437,1.68047 -3.010204,2.13011 -0.257822,0.38972 1.89702,3.86265 2.384711,3.86215 0.401627,-4.1e-4 2.781177,-1.62059 3.038977,-2.04027 0.0859,-0.14988 -0.37396,-1.07811 -0.97735,-2.09607 z"
                   id="path21"
                   style="fill:#000000;stroke:none;stroke-width:0.029316" /><path
                   d="m 99.025034,231.05094 c -0.459707,-0.74848 -0.948074,-1.46697 -1.120284,-1.55667 -0.287046,-0.17945 -3.469489,1.831 -3.469179,2.16054 3.95e-4,0.41942 1.867854,3.3534 2.15473,3.3531 0.401627,-4.1e-4 3.297165,-2.04053 3.296884,-2.34011 -1.13e-4,-0.11983 -0.402416,-0.83842 -0.862151,-1.61686 z"
                   id="path22"
                   style="fill:#000000;stroke:none;stroke-width:0.029316" /><path
                   d="m 96.748566,220.26836 c -0.574627,-0.92811 -1.120509,-1.79634 -1.235372,-1.91605 -0.229727,-0.23943 -3.383341,1.92079 -3.382975,2.31024 3.38e-4,0.3595 1.925341,3.47317 2.269819,3.71248 0.315733,0.17942 3.096774,-1.59096 3.268421,-2.10042 0.08592,-0.14988 -0.345266,-1.07814 -0.919893,-2.00625 z"
                   id="path23"
                   style="fill:#000000;stroke:none;stroke-width:0.029316" /><path
                   d="m 97.50918,235.93567 c -0.287102,-0.23937 -0.545263,-0.20915 -0.94658,0.1208 -0.515984,0.41995 -0.487296,0.41992 0.402049,0.44896 1.032756,-10e-4 1.090075,-0.061 0.544531,-0.56976 z"
                   id="path24"
                   style="fill:#000000;stroke:none;stroke-width:0.029316" /><path
                   d="m 94.954034,233.87118 c -0.517167,-0.83829 -1.091596,-1.5567 -1.29241,-1.55649 -0.372939,3.8e-4 -2.8385,1.68056 -3.096295,2.10024 -0.08592,0.14988 0.02934,0.68901 0.288004,1.19803 0.431103,0.83838 0.54591,0.89818 2.181107,0.8965 1.635197,-0.002 2.83974,-0.36241 2.83929,-0.84173 -1.13e-4,-0.11984 -0.431189,-0.92826 -0.919696,-1.79655 z"
                   id="path25"
                   style="fill:#000000;stroke:none;stroke-width:0.029316" /><path
                   d="m 94.346128,228.05993 c -0.517111,-0.77838 -1.005421,-1.43696 -1.148859,-1.43681 -0.258189,2.7e-4 -3.354456,2.13047 -3.354287,2.31022 2.82e-4,0.29958 1.49435,2.75461 1.896287,3.08374 0.344534,0.29922 0.688673,0.17904 1.978773,-0.72103 0.860066,-0.60004 1.576638,-1.25986 1.547753,-1.46953 -1.69e-4,-0.17975 -0.431245,-0.98818 -0.919667,-1.76659 z"
                   id="path26"
                   style="fill:#000000;stroke:none;stroke-width:0.029316" /><path
                   d="m 92.706282,223.11853 c -0.632114,-1.04789 -1.292719,-1.88604 -1.436157,-1.88589 -0.487691,5e-4 -3.15384,1.92055 -3.153502,2.28005 1.69e-4,0.17975 0.517477,1.16783 1.149563,2.18576 l 1.149253,1.85623 0.888811,-0.54016 c 0.487408,-0.30008 1.26144,-0.87008 1.720048,-1.28996 l 0.831238,-0.74981 z"
                   id="path27"
                   style="fill:#000000;stroke:none;stroke-width:0.029316" /><path
                   d="m 90.36136,231.05983 c -0.488451,-0.80837 -1.062796,-1.4369 -1.292297,-1.43666 -0.459002,4.7e-4 -2.809869,1.62062 -3.096267,2.1302 -0.171872,0.2698 1.695925,3.56327 2.011489,3.56295 0.401627,-4.1e-4 3.296996,-2.22028 3.268027,-2.51983 -1.69e-4,-0.17975 -0.402529,-0.95825 -0.890952,-1.73666 z"
                   id="path28"
                   style="fill:#000000;stroke:none;stroke-width:0.029316" /><path
                   d="m 90.193601,235.70351 -0.488338,-0.68854 -1.146802,0.75013 -1.14683,0.72017 1.663912,0.0282 c 0.889317,-9.1e-4 1.635168,-0.0316 1.63514,-0.0616 -5.6e-5,-0.0599 -0.229867,-0.38922 -0.517082,-0.74842 z"
                   id="path29"
                   style="fill:#000000;stroke:none;stroke-width:0.029316" /><path
                   d="m 88.549051,225.7591 c -0.517195,-0.86825 -1.034305,-1.64663 -1.120453,-1.73642 -0.172295,-0.17957 -3.698708,2.13082 -4.185806,2.76044 -0.257879,0.3298 -0.11399,0.80899 0.719276,2.21616 0.574683,0.98803 1.149281,1.88619 1.321492,1.97588 0.373193,0.26924 4.243322,-2.6107 4.242815,-3.14995 -2.25e-4,-0.23966 -0.431413,-1.16792 -0.977324,-2.06611 z"
                   id="path30"
                   style="fill:#000000;stroke:none;stroke-width:0.029316" /><path
                   d="m 86.434222,234.32929 c -1.235626,-2.18567 -1.206939,-2.1857 -3.013078,-0.92561 -1.74882,1.20012 -1.748792,1.23008 -1.260031,2.36798 0.287524,0.68874 0.459706,0.74848 2.38178,0.74651 2.69664,-0.003 2.954547,-0.30261 1.891329,-2.18888 z"
                   id="path31"
                   style="fill:#000000;stroke:none;stroke-width:0.029316" /><path
                   d="m 76.217752,230.44521 c -4.64433,3.2702 -8.342502,5.97022 -8.17032,6.02996 0.315677,0.11951 0.401683,0.0595 9.8335,-6.78061 3.72686,-2.70006 6.794299,-4.98002 6.794242,-5.03993 -8.4e-5,-0.0899 -3.813092,2.52039 -8.457422,5.79058 z"
                   id="path32"
                   style="fill:#000000;stroke:none;stroke-width:0.029316" /><path
                   d="m 83.50346,229.41917 c -0.660802,-1.04786 -1.264032,-1.88607 -1.378783,-1.88595 -0.08606,9e-5 -2.780956,1.86025 -5.963145,4.14033 -3.210905,2.25016 -6.049096,4.26026 -6.307087,4.47023 -0.401374,0.27004 0.373277,0.35912 3.844484,0.35556 l 4.360553,0.0255 3.21082,-2.34002 c 1.777423,-1.29003 3.268083,-2.45992 3.325317,-2.60977 0.02852,-0.17978 -0.460073,-1.13794 -1.092159,-2.15586 z"
                   id="path33"
                   style="fill:#000000;stroke:none;stroke-width:0.029316" /><path
                   d="m 81.501381,235.86221 c -0.373588,-0.68865 -0.803874,-0.65825 -1.692516,0.0617 l -0.716628,0.59989 1.377008,-0.001 c 0.745879,-7.6e-4 1.348292,-0.0313 1.348264,-0.0613 -5.7e-5,-0.0599 -0.143749,-0.32939 -0.316128,-0.59884 z"
                   id="path34"
                   style="fill:#000000;stroke:none;stroke-width:0.029316" /><rect
                   style="fill:#000000;fill-opacity:1;stroke:#000000;stroke-width:0.600001;stroke-linecap:round;stroke-dasharray:none"
                   id="rect2"
                   width="37.077217"
                   height="37.459457"
                   x="118.11197"
                   y="123.08108" /></g></g><rect
               style="fill:#000000;fill-opacity:1;stroke:#000000;stroke-width:0.600001;stroke-linecap:round;stroke-linejoin:round;stroke-miterlimit:2;stroke-dasharray:none;paint-order:stroke fill markers"
               id="rect5"
               width="22.169884"
               height="15.671815"
               x="247.14964"
               y="-48.901321"
               transform="rotate(53.910431)"
               ry="1.2068856" /></g></g></g><g
         id="g76"
         style="fill:#ffffff;fill-opacity:0.966189"><rect
           style="fill:#ffffff;fill-opacity:0.966189;stroke:#ff0404;stroke-width:0.600001;stroke-linecap:round;stroke-linejoin:round;stroke-miterlimit:2;stroke-dasharray:none;stroke-opacity:0;paint-order:stroke fill markers"
           id="rect75"
           width="19.460451"
           height="2.7028406"
           x="24.865381"
           y="28.639578"
           transform="rotate(-0.00143812)"
           ry="1.3514203" /><rect
           style="fill:#ffffff;fill-opacity:0.966189;stroke:#ff0404;stroke-width:0.600001;stroke-linecap:round;stroke-linejoin:round;stroke-miterlimit:2;stroke-dasharray:none;stroke-opacity:0;paint-order:stroke fill markers"
           id="rect76"
           width="19.460451"
           height="2.7028406"
           x="20.226931"
           y="-35.992901"
           transform="rotate(90.073465)"
           ry="1.3514203" /></g></g></g></svg>
