<svg width="278" height="261" viewBox="0 0 278 261" fill="none" xmlns="http://www.w3.org/2000/svg">
<rect y="11" width="253.849" height="249.059" rx="30" fill="#4A4646"/>
<path d="M27.2031 104.859H86.7812L90.1562 120.328H86.7812C84.375 116.297 81.8594 113.344 79.2344 111.469C76.6094 109.594 74.125 108.469 71.7812 108.094C69.4688 107.719 66.4375 107.5 62.6875 107.438V160.734C62.6875 162.797 63.0156 164.375 63.6719 165.469C64.3281 166.531 65.4062 167.266 66.9062 167.672C68.4062 168.078 70.5 168.328 73.1875 168.422V171H40.3281V168.422C43.0469 168.359 45.125 168.156 46.5625 167.812C48.0312 167.438 49.125 166.688 49.8438 165.562C50.5938 164.406 50.9688 162.609 50.9688 160.172V107.438C47.5938 107.469 44.6562 107.812 42.1562 108.469C39.6562 109.094 37.5625 109.953 35.875 111.047C34.1875 112.141 32.7812 113.312 31.6562 114.562C30.5625 115.781 28.9375 117.703 26.7812 120.328H23.9219L27.2031 104.859ZM84.8594 114.938L82.75 107.438H73.9375C76.3125 108.188 78.2969 109.156 79.8906 110.344C81.4844 111.531 83.1406 113.062 84.8594 114.938ZM55.5156 159.094V113.016C55.5156 111.203 55.2969 109.844 54.8594 108.938C54.4531 108.031 53.6719 107.531 52.5156 107.438V160.734C52.5156 162.672 52.2812 164.219 51.8125 165.375C51.3438 166.531 50.4688 167.547 49.1875 168.422H50.2188C52.5 168.422 53.9531 167.703 54.5781 166.266C55.2031 164.828 55.5156 162.438 55.5156 159.094ZM35.9219 107.438H28.3281L26.5 115.406C28.0938 113.312 29.4844 111.766 30.6719 110.766C31.8594 109.734 33.6094 108.625 35.9219 107.438ZM187.094 171H163.75V168.422C166.312 168.078 167.594 167.109 167.594 165.516C167.594 164.797 166.953 163.547 165.672 161.766L161.172 155.719L158.266 159.281C157.609 160.062 157.078 160.812 156.672 161.531C156.266 162.25 156.062 163.172 156.062 164.297C156.062 165.359 156.469 166.266 157.281 167.016C158.094 167.766 159.25 168.234 160.75 168.422V171H141.484V168.422C142.859 168.234 144.312 167.703 145.844 166.828C147.406 165.922 149 164.766 150.625 163.359C152.281 161.922 154 160.156 155.781 158.062L159.531 153.516L147.25 136.922C145.906 135.109 144.797 133.969 143.922 133.5C143.047 133.031 142.062 132.672 140.969 132.422V130.031H163.75V132.422C161.5 132.609 160.375 133.406 160.375 134.812C160.375 135.844 160.953 137.156 162.109 138.75L166.703 144.984L168.906 142.312C170.781 140.125 171.719 138 171.719 135.938C171.719 134.938 171.406 134.125 170.781 133.5C170.156 132.875 169.25 132.516 168.062 132.422V130.031H185.641V132.422C183.859 132.734 182.219 133.359 180.719 134.297C179.25 135.203 177.906 136.297 176.688 137.578C175.469 138.828 174.062 140.406 172.469 142.312L168.344 147.188L179.312 162.188C179.406 162.281 179.75 162.766 180.344 163.641C180.938 164.516 181.547 165.266 182.172 165.891C182.797 166.516 183.5 167.031 184.281 167.438C185.062 167.844 186 168.172 187.094 168.422V171ZM149.359 136.922L166.891 160.828C168.391 162.891 169.141 164.484 169.141 165.609C169.141 166.578 168.719 167.516 167.875 168.422H169C169.844 168.422 170.625 168.094 171.344 167.438C172.094 166.781 172.469 166.047 172.469 165.234C172.469 163.891 171.453 161.812 169.422 159L153.203 136.922C152.016 135.359 151.109 134.297 150.484 133.734C149.891 133.172 149.203 132.812 148.422 132.656C147.641 132.469 146.578 132.391 145.234 132.422C145.766 132.797 146.266 133.234 146.734 133.734C147.203 134.203 147.609 134.641 147.953 135.047C148.297 135.453 148.594 135.844 148.844 136.219C149.094 136.562 149.266 136.797 149.359 136.922ZM179.125 132.609H171.906C172.812 133.609 173.266 134.719 173.266 135.938C173.266 136.562 173.156 137.172 172.938 137.766C175.125 135.453 177.188 133.734 179.125 132.609ZM146.172 168.422H154.797C154.109 167.828 153.625 167.297 153.344 166.828C153.094 166.328 152.969 165.641 152.969 164.766C152.969 164.141 153.141 163.406 153.484 162.562C151.141 165.156 148.703 167.109 146.172 168.422ZM195.438 159.656V132.984H190.422V130.594C193.172 128.531 195.234 126.953 196.609 125.859C197.984 124.734 199.281 123.484 200.5 122.109C201.75 120.734 202.812 119.297 203.688 117.797H206.172V130.031H217.797V132.984H206.172V161.016C206.172 163.078 206.422 164.625 206.922 165.656C207.422 166.656 208.266 167.156 209.453 167.156C210.578 167.156 211.609 166.844 212.547 166.219C213.516 165.594 214.688 164.625 216.062 163.312L217.797 165.141C215.453 167.547 213.297 169.344 211.328 170.531C209.391 171.688 207.156 172.266 204.625 172.266C202.219 172.266 200.344 171.734 199 170.672C197.656 169.609 196.719 168.172 196.188 166.359C195.688 164.516 195.438 162.281 195.438 159.656ZM200.031 125.016L196.938 127.594V158.719C196.938 162.875 197.469 165.906 198.531 167.812C199.625 169.688 201.562 170.625 204.344 170.625C205.812 170.625 207.281 170.391 208.75 169.922C205.906 170.016 203.734 169.359 202.234 167.953C200.766 166.516 200.031 164.141 200.031 160.828V125.016Z" fill="white"/>
<path d="M154.094 77.375L155.969 78.8281C154.562 81.4531 152.891 83.6094 150.953 85.2969C149.016 86.9844 146.875 88.2344 144.531 89.0469C142.219 89.8594 139.797 90.2656 137.266 90.2656C133.828 90.2656 130.625 89.4375 127.656 87.7812C124.719 86.125 122.391 83.7344 120.672 80.6094C118.953 77.4844 118.094 73.9375 118.094 69.9688C118.094 66.8438 118.609 63.9062 119.641 61.1562C120.703 58.4062 122.156 55.9844 124 53.8906C125.875 51.7969 128.031 50.1719 130.469 49.0156C132.938 47.8281 135.562 47.2344 138.344 47.2344C141.156 47.2344 143.828 47.8281 146.359 49.0156C148.922 50.1719 150.953 51.7812 152.453 53.8438C153.547 55.3438 154.328 56.8906 154.797 58.4844C155.297 60.0469 155.688 61.9375 155.969 64.1562H127.656C127.781 67.4062 128.328 70.1562 129.297 72.4062C130.297 74.6562 131.578 76.4688 133.141 77.8438C134.734 79.2188 136.422 80.2031 138.203 80.7969C139.984 81.3906 141.688 81.6875 143.312 81.6875C147.25 81.6875 150.844 80.25 154.094 77.375ZM145.797 61.1562H149.078C148.984 57.6562 148.266 55.0781 146.922 53.4219C145.578 51.7344 143.328 50.6094 140.172 50.0469C142.172 50.9531 143.609 52.1406 144.484 53.6094C145.359 55.0469 145.797 57.25 145.797 60.2188V61.1562ZM127.938 61.1562H144.297V59.6094C144.297 57.7969 143.969 56.1875 143.312 54.7812C142.656 53.3438 141.75 52.25 140.594 51.5C139.469 50.7188 138.172 50.3281 136.703 50.3281C134.328 50.3281 132.312 51.3906 130.656 53.5156C129 55.6094 128.094 58.1562 127.938 61.1562ZM128.359 51.9219C122.516 56.5469 119.594 62.6094 119.594 70.1094C119.594 75.5469 121.328 80 124.797 83.4688C128.297 86.9062 132.328 88.625 136.891 88.625C139.547 88.625 142.203 88.0938 144.859 87.0312C147.547 85.9375 149.812 84.3281 151.656 82.2031C149.75 83.4219 147.797 84.4219 145.797 85.2031C143.828 85.9531 141.469 86.3281 138.719 86.3281C134.062 86.3281 130.172 84.7031 127.047 81.4531C123.953 78.2031 122.406 73.9688 122.406 68.75C122.406 65.4375 122.922 62.4688 123.953 59.8438C124.984 57.2188 126.453 54.5781 128.359 51.9219Z" fill="white"/>
<path d="M128.641 188.719C128.641 188.844 128.844 189.297 129.25 190.078C129.656 190.859 129.859 191.594 129.859 192.281C129.859 193.625 129.297 194.828 128.172 195.891C127.078 196.922 125.703 197.438 124.047 197.438C122.453 197.438 121.188 197.031 120.25 196.219C119.312 195.375 118.844 194.406 118.844 193.312C118.844 191.688 119.625 190.094 121.188 188.531C122.781 186.969 124.953 185.703 127.703 184.734C130.484 183.734 133.547 183.234 136.891 183.234C139.328 183.234 141.594 183.656 143.688 184.5C145.812 185.344 147.5 186.625 148.75 188.344C150 190.062 150.625 192.141 150.625 194.578V218.391C150.625 220.297 151.172 221.25 152.266 221.25C152.922 221.25 153.719 220.734 154.656 219.703L156.391 221.719C154.859 223.25 153.438 224.406 152.125 225.188C150.844 225.969 149.312 226.359 147.531 226.359C145.469 226.359 143.859 225.906 142.703 225C141.547 224.062 140.734 222.625 140.266 220.688C135.953 224.406 131.688 226.266 127.469 226.266C124.469 226.266 122.078 225.484 120.297 223.922C118.547 222.359 117.672 220.375 117.672 217.969C117.672 215.812 118.203 213.984 119.266 212.484C120.359 210.953 121.781 209.609 123.531 208.453C125.312 207.266 127.922 205.781 131.359 204C134.797 202.188 137.625 200.641 139.844 199.359V192.281C139.844 190.156 139.359 188.547 138.391 187.453C137.422 186.359 135.969 185.812 134.031 185.812C132.344 185.812 131.016 186.125 130.047 186.75C129.109 187.344 128.641 188 128.641 188.719ZM141.391 195.328V213.844C141.391 217.5 141.781 220.234 142.562 222.047C143.344 223.828 144.875 224.719 147.156 224.719C148.188 224.719 149.016 224.594 149.641 224.344C147.766 224.062 146.438 223.312 145.656 222.094C144.875 220.875 144.484 218.969 144.484 216.375V194.859C144.484 191.609 144.016 189.375 143.078 188.156C142.172 186.906 140.594 186.156 138.344 185.906C139.562 186.531 140.375 187.438 140.781 188.625C141.188 189.812 141.391 192.047 141.391 195.328ZM139.844 217.594V202.547C135.844 204.797 133.047 206.828 131.453 208.641C129.891 210.453 129.109 212.641 129.109 215.203C129.109 216.922 129.578 218.25 130.516 219.188C131.453 220.125 132.547 220.594 133.797 220.594C135.766 220.594 137.781 219.594 139.844 217.594ZM131.594 224.062C128.75 224.062 126.469 223.484 124.75 222.328C123.062 221.172 122.219 219.5 122.219 217.312C122.219 215.719 122.625 214.219 123.438 212.812C124.281 211.375 125.531 209.781 127.188 208.031C124.656 209.5 122.688 211 121.281 212.531C119.906 214.062 119.219 215.875 119.219 217.969C119.219 219.875 120.047 221.469 121.703 222.75C123.391 224 125.219 224.625 127.188 224.625C129.094 224.625 130.562 224.438 131.594 224.062ZM127.188 194.484C126.062 194.578 125.203 194.359 124.609 193.828C124.016 193.297 123.719 192.672 123.719 191.953C123.719 190.984 123.984 190.125 124.516 189.375C125.047 188.594 125.969 187.484 127.281 186.047C125.062 187.172 123.359 188.297 122.172 189.422C120.984 190.547 120.391 191.812 120.391 193.219C120.391 193.844 120.703 194.438 121.328 195C121.984 195.531 122.75 195.797 123.625 195.797C125.125 195.797 126.312 195.359 127.188 194.484Z" fill="white"/>
<path d="M111.523 81.4046C111.229 80.6817 110.334 80.3622 109.525 80.6911L96.3309 86.0502C95.5213 86.3791 95.103 87.2317 95.3966 87.9547C95.6903 88.6777 96.5847 88.9971 97.3943 88.6683L109.122 83.9046L113.376 94.3769C113.67 95.0999 114.564 95.4194 115.374 95.0905C116.183 94.7616 116.602 93.909 116.308 93.186L111.523 81.4046ZM95.3035 115.458L111.469 82.5047L108.644 81.4955L92.4783 114.449L95.3035 115.458Z" fill="white"/>
<path d="M92.6984 145.852C91.9113 145.483 91.0031 145.761 90.6699 146.473L85.2388 158.066C84.9056 158.777 85.2734 159.653 86.0605 160.022C86.8475 160.39 87.7557 160.113 88.089 159.401L92.9166 149.096L104.317 154.437C105.104 154.806 106.012 154.528 106.346 153.816C106.679 153.105 106.311 152.229 105.524 151.861L92.6984 145.852ZM110.593 187.318L93.5293 146.701L90.6605 147.579L107.724 188.196L110.593 187.318Z" fill="white"/>
</svg>
